<svg width="156" height="46" viewBox="0 0 156 46" fill="none" xmlns="http://www.w3.org/2000/svg">
<g clip-path="url(#clip0_887_2577)">
<path d="M146.91 0H9.47634C4.73242 0 0.886719 3.8457 0.886719 8.58962V37.2217C0.886719 41.9656 4.73242 45.8113 9.47634 45.8113H146.91C151.654 45.8113 155.5 41.9656 155.5 37.2217V8.58962C155.5 3.8457 151.654 0 146.91 0Z" fill="black"/>
<path d="M78.9209 24.9112C76.2272 24.9112 74.0317 26.9601 74.0317 29.7821C74.0317 32.5869 76.2272 34.653 78.9209 34.653C81.6158 34.653 83.8113 32.5869 83.8113 29.7821C83.8101 26.9601 81.6146 24.9112 78.9209 24.9112ZM78.9209 32.7358C77.4447 32.7358 76.1722 31.5183 76.1722 29.7832C76.1722 28.0298 77.4458 26.8307 78.9209 26.8307C80.3972 26.8307 81.6696 28.0298 81.6696 29.7832C81.6696 31.5172 80.3972 32.7358 78.9209 32.7358ZM68.2538 24.9112C65.56 24.9112 63.3645 26.9601 63.3645 29.7821C63.3645 32.5869 65.56 34.653 68.2538 34.653C70.9486 34.653 73.1441 32.5869 73.1441 29.7821C73.1441 26.9601 70.9486 24.9112 68.2538 24.9112ZM68.2538 32.7358C66.7775 32.7358 65.5051 31.5183 65.5051 29.7832C65.5051 28.0298 66.7786 26.8307 68.2538 26.8307C69.73 26.8307 71.0024 28.0298 71.0024 29.7832C71.0036 31.5172 69.73 32.7358 68.2538 32.7358ZM55.5663 26.4069V28.473H60.5116C60.3639 29.6355 59.9768 30.4841 59.3858 31.074C58.6666 31.7932 57.5408 32.5869 55.5663 32.5869C52.5221 32.5869 50.1423 30.1325 50.1423 27.0884C50.1423 24.0442 52.5221 21.5899 55.5663 21.5899C57.2086 21.5899 58.4078 22.2358 59.2931 23.0661L60.751 21.6082C59.5141 20.4274 57.8729 19.5238 55.5663 19.5238C51.3963 19.5238 47.8906 22.9184 47.8906 27.0884C47.8906 31.2583 51.3963 34.653 55.5663 34.653C57.8168 34.653 59.5152 33.9143 60.8426 32.5308C62.2078 31.1656 62.6327 29.2461 62.6327 27.6965C62.6327 27.2178 62.5961 26.7746 62.5216 26.4058H55.5663V26.4069ZM107.457 28.0115C107.051 26.9234 105.814 24.9112 103.287 24.9112C100.778 24.9112 98.6919 26.8857 98.6919 29.7821C98.6919 32.5124 100.759 34.653 103.526 34.653C105.758 34.653 107.05 33.2878 107.586 32.4941L105.926 31.3866C105.372 32.1986 104.615 32.7335 103.526 32.7335C102.438 32.7335 101.663 32.2353 101.165 31.2572L107.678 28.5635L107.457 28.0115ZM100.814 29.6355C100.759 27.7526 102.272 26.794 103.361 26.794C104.21 26.794 104.929 27.2189 105.17 27.8271L100.814 29.6355ZM95.5195 34.3586H97.6589V20.0414H95.5195V34.3586ZM92.0127 26.0003H91.9394C91.4595 25.4277 90.5364 24.9112 89.3751 24.9112C86.939 24.9112 84.7069 27.0517 84.7069 29.8015C84.7069 32.5319 86.939 34.6541 89.3751 34.6541C90.5375 34.6541 91.4595 34.1376 91.9394 33.5478H92.0127V34.2487C92.0127 36.1121 91.0163 37.1085 89.4117 37.1085C88.1015 37.1085 87.2895 36.1682 86.9574 35.3745L85.094 36.1498C85.6288 37.4406 87.049 39.0279 89.4117 39.0279C91.921 39.0279 94.0432 37.5517 94.0432 33.9532V25.2078H92.0138V26.0003H92.0127ZM89.5595 32.7358C88.0832 32.7358 86.8474 31.4989 86.8474 29.8015C86.8474 28.0848 88.0832 26.8307 89.5595 26.8307C91.0163 26.8307 92.1604 28.0848 92.1604 29.8015C92.1604 31.4989 91.0163 32.7358 89.5595 32.7358ZM117.483 20.0414H112.362V34.3586H114.498V28.9346H117.481C119.85 28.9346 122.179 27.2201 122.179 24.4886C122.179 21.7571 119.851 20.0414 117.483 20.0414ZM117.538 26.9418H114.498V22.0342H117.538C119.135 22.0342 120.042 23.357 120.042 24.4886C120.042 25.5972 119.135 26.9418 117.538 26.9418ZM130.745 24.886C129.198 24.886 127.595 25.5674 126.932 27.0781L128.829 27.8695C129.234 27.0781 129.99 26.8192 130.782 26.8192C131.887 26.8192 133.01 27.4823 133.029 28.6608V28.8086C132.642 28.5875 131.812 28.2566 130.8 28.2566C128.756 28.2566 126.674 29.3801 126.674 31.4794C126.674 33.3954 128.35 34.6289 130.228 34.6289C131.665 34.6289 132.457 33.9841 132.954 33.2282H133.028V34.3334H135.091V28.8441C135.092 26.3039 133.194 24.886 130.745 24.886ZM130.486 32.7323C129.788 32.7323 128.811 32.3819 128.811 31.516C128.811 30.4108 130.027 29.9871 131.077 29.9871C132.015 29.9871 132.458 30.1898 133.029 30.4658C132.863 31.7932 131.721 32.7323 130.486 32.7323ZM142.607 25.1987L140.157 31.4061H140.084L137.541 25.1987H135.239L139.052 33.8742L136.878 38.7004H139.107L144.983 25.1987H142.607ZM123.359 34.3586H125.495V20.0414H123.359V34.3586Z" fill="white"/>
<path d="M55.1934 11.7311C55.1934 12.6908 54.9093 13.4547 54.3401 14.0251C53.6942 14.7031 52.8513 15.0421 51.8159 15.0421C50.8241 15.0421 49.9801 14.6985 49.2872 14.0113C48.5931 13.323 48.2461 12.4709 48.2461 11.4539C48.2461 10.4358 48.5931 9.58369 49.2872 8.89652C49.9801 8.20821 50.8241 7.86462 51.8159 7.86462C52.3084 7.86462 52.7791 7.96083 53.2258 8.15209C53.6736 8.3445 54.0321 8.5999 54.3001 8.91943L53.6965 9.52414C53.2418 8.98013 52.6153 8.7087 51.8148 8.7087C51.091 8.7087 50.4656 8.96295 49.9377 9.47146C49.4097 9.97996 49.1463 10.6408 49.1463 11.4528C49.1463 12.2648 49.4097 12.9256 49.9377 13.4341C50.4656 13.9426 51.091 14.1969 51.8148 14.1969C52.5821 14.1969 53.2223 13.9415 53.7343 13.4295C54.0664 13.0962 54.2588 12.6324 54.3104 12.038H51.8148V11.2123H55.1441C55.1785 11.3921 55.1934 11.565 55.1934 11.7311Z" fill="white"/>
<path d="M60.4732 8.86104H57.3443V11.0394H60.1663V11.8651H57.3443V14.0435H60.4732V14.8887H56.4613V8.01697H60.4732V8.86104Z" fill="white"/>
<path d="M64.1964 14.8887H63.3134V8.86104H61.3939V8.01697H66.1159V8.86104H64.1964V14.8887Z" fill="white"/>
<path d="M69.5323 14.8887V8.01697H70.4153V14.8887H69.5323Z" fill="white"/>
<path d="M74.3312 14.8887H73.4482V8.86104H71.5287V8.01697H76.2507V8.86104H74.3312V14.8887Z" fill="white"/>
<path d="M85.1893 14.001C84.5136 14.695 83.6741 15.042 82.6697 15.042C81.6653 15.042 80.8258 14.695 80.1512 14.001C79.4755 13.3069 79.1388 12.4571 79.1388 11.4527C79.1388 10.4483 79.4755 9.59855 80.1512 8.9045C80.8258 8.21046 81.6653 7.8623 82.6697 7.8623C83.6684 7.8623 84.5068 8.21161 85.1848 8.90908C85.8628 9.60656 86.2018 10.454 86.2018 11.4527C86.2018 12.4571 85.8639 13.3069 85.1893 14.001ZM80.8029 13.4249C81.3114 13.9403 81.9333 14.1968 82.6697 14.1968C83.4061 14.1968 84.0292 13.9391 84.5365 13.4249C85.045 12.9095 85.3004 12.2521 85.3004 11.4527C85.3004 10.6533 85.045 9.99597 84.5365 9.48059C84.0292 8.96521 83.4061 8.70866 82.6697 8.70866C81.9333 8.70866 81.3114 8.96636 80.8029 9.48059C80.2956 9.99597 80.0402 10.6533 80.0402 11.4527C80.0402 12.2521 80.2956 12.9095 80.8029 13.4249Z" fill="white"/>
<path d="M87.441 14.8887V8.01697H88.5153L91.8549 13.362H91.8927L91.8549 12.0381V8.01697H92.7379V14.8887H91.816L88.3217 9.28366H88.2839L88.3217 10.6076V14.8887H87.441Z" fill="white"/>
<path d="M55.1934 11.7311C55.1934 12.6908 54.9093 13.4547 54.3401 14.0251C53.6942 14.7031 52.8513 15.0421 51.8159 15.0421C50.8241 15.0421 49.9801 14.6985 49.2872 14.0113C48.5931 13.323 48.2461 12.4709 48.2461 11.4539C48.2461 10.4358 48.5931 9.58369 49.2872 8.89652C49.9801 8.20821 50.8241 7.86462 51.8159 7.86462C52.3084 7.86462 52.7791 7.96083 53.2258 8.15209C53.6736 8.3445 54.0321 8.5999 54.3001 8.91943L53.6965 9.52414C53.2418 8.98013 52.6153 8.7087 51.8148 8.7087C51.091 8.7087 50.4656 8.96295 49.9377 9.47146C49.4097 9.97996 49.1463 10.6408 49.1463 11.4528C49.1463 12.2648 49.4097 12.9256 49.9377 13.4341C50.4656 13.9426 51.091 14.1969 51.8148 14.1969C52.5821 14.1969 53.2223 13.9415 53.7343 13.4295C54.0664 13.0962 54.2588 12.6324 54.3104 12.038H51.8148V11.2123H55.1441C55.1785 11.3921 55.1934 11.565 55.1934 11.7311Z" stroke="white" stroke-width="0.229057" stroke-miterlimit="10"/>
<path d="M60.4732 8.86104H57.3443V11.0394H60.1663V11.8651H57.3443V14.0435H60.4732V14.8887H56.4613V8.01697H60.4732V8.86104Z" stroke="white" stroke-width="0.229057" stroke-miterlimit="10"/>
<path d="M64.1964 14.8887H63.3134V8.86104H61.3939V8.01697H66.1159V8.86104H64.1964V14.8887Z" stroke="white" stroke-width="0.229057" stroke-miterlimit="10"/>
<path d="M69.5323 14.8887V8.01697H70.4153V14.8887H69.5323Z" stroke="white" stroke-width="0.229057" stroke-miterlimit="10"/>
<path d="M74.3312 14.8887H73.4482V8.86104H71.5287V8.01697H76.2507V8.86104H74.3312V14.8887Z" stroke="white" stroke-width="0.229057" stroke-miterlimit="10"/>
<path d="M85.1893 14.001C84.5136 14.695 83.6741 15.042 82.6697 15.042C81.6653 15.042 80.8258 14.695 80.1512 14.001C79.4755 13.3069 79.1388 12.4571 79.1388 11.4527C79.1388 10.4483 79.4755 9.59855 80.1512 8.9045C80.8258 8.21046 81.6653 7.8623 82.6697 7.8623C83.6684 7.8623 84.5068 8.21161 85.1848 8.90908C85.8628 9.60656 86.2018 10.454 86.2018 11.4527C86.2018 12.4571 85.8639 13.3069 85.1893 14.001ZM80.8029 13.4249C81.3114 13.9403 81.9333 14.1968 82.6697 14.1968C83.4061 14.1968 84.0292 13.9391 84.5365 13.4249C85.045 12.9095 85.3004 12.2521 85.3004 11.4527C85.3004 10.6533 85.045 9.99597 84.5365 9.48059C84.0292 8.96521 83.4061 8.70866 82.6697 8.70866C81.9333 8.70866 81.3114 8.96636 80.8029 9.48059C80.2956 9.99597 80.0402 10.6533 80.0402 11.4527C80.0402 12.2521 80.2956 12.9095 80.8029 13.4249Z" stroke="white" stroke-width="0.229057" stroke-miterlimit="10"/>
<path d="M87.441 14.8887V8.01697H88.5153L91.8549 13.362H91.8927L91.8549 12.0381V8.01697H92.7379V14.8887H91.816L88.3217 9.28366H88.2839L88.3217 10.6076V14.8887H87.441Z" stroke="white" stroke-width="0.229057" stroke-miterlimit="10"/>
<g filter="url(#filter0_dd_887_2577)">
<path d="M12.8389 8.63317C12.5056 8.98591 12.3086 9.53336 12.3086 10.2423V35.5714C12.3086 36.2814 12.5056 36.8277 12.8389 37.1805L12.9236 37.2629L27.1125 23.074V22.9068V22.7396L12.9236 8.54956L12.8389 8.63317Z" fill="url(#paint0_linear_887_2577)"/>
<path d="M31.8422 27.8051L27.1133 23.0739V22.9067V22.7395L31.8433 18.0095L31.9498 18.0702L37.5537 21.2541C39.1536 22.1634 39.1536 23.6512 37.5537 24.5617L31.9498 27.7456L31.8422 27.8051Z" fill="url(#paint1_linear_887_2577)"/>
<g filter="url(#filter1_d_887_2577)">
<path d="M31.95 27.7446L27.1124 22.907L12.8398 37.1806C13.3667 37.7395 14.2382 37.8082 15.2197 37.2516L31.95 27.7446Z" fill="url(#paint2_linear_887_2577)"/>
</g>
<path d="M31.95 18.0693L15.2197 8.56337C14.2382 8.00562 13.3667 8.07548 12.8398 8.63438L27.1135 22.9081L31.95 18.0693Z" fill="url(#paint3_linear_887_2577)"/>
</g>
</g>
<defs>
<filter id="filter0_dd_887_2577" x="12.3086" y="8.00667" width="26.4451" height="29.8011" filterUnits="userSpaceOnUse" color-interpolation-filters="sRGB">
<feFlood flood-opacity="0" result="BackgroundImageFix"/>
<feColorMatrix in="SourceAlpha" type="matrix" values="0 0 0 0 0 0 0 0 0 0 0 0 0 0 0 0 0 0 127 0" result="hardAlpha"/>
<feOffset dy="-0.171792"/>
<feComposite in2="hardAlpha" operator="out"/>
<feColorMatrix type="matrix" values="0 0 0 0 0 0 0 0 0 0 0 0 0 0 0 0 0 0 0.12 0"/>
<feBlend mode="normal" in2="BackgroundImageFix" result="effect1_dropShadow_887_2577"/>
<feColorMatrix in="SourceAlpha" type="matrix" values="0 0 0 0 0 0 0 0 0 0 0 0 0 0 0 0 0 0 127 0" result="hardAlpha"/>
<feOffset dy="0.171792"/>
<feComposite in2="hardAlpha" operator="out"/>
<feColorMatrix type="matrix" values="0 0 0 0 1 0 0 0 0 1 0 0 0 0 1 0 0 0 0.25 0"/>
<feBlend mode="normal" in2="effect1_dropShadow_887_2577" result="effect2_dropShadow_887_2577"/>
<feBlend mode="normal" in="SourceGraphic" in2="effect2_dropShadow_887_2577" result="shape"/>
</filter>
<filter id="filter1_d_887_2577" x="12.8398" y="22.7352" width="19.1102" height="14.9008" filterUnits="userSpaceOnUse" color-interpolation-filters="sRGB">
<feFlood flood-opacity="0" result="BackgroundImageFix"/>
<feColorMatrix in="SourceAlpha" type="matrix" values="0 0 0 0 0 0 0 0 0 0 0 0 0 0 0 0 0 0 127 0" result="hardAlpha"/>
<feOffset dy="-0.171792"/>
<feComposite in2="hardAlpha" operator="out"/>
<feColorMatrix type="matrix" values="0 0 0 0 0 0 0 0 0 0 0 0 0 0 0 0 0 0 0.08 0"/>
<feBlend mode="normal" in2="BackgroundImageFix" result="effect1_dropShadow_887_2577"/>
<feBlend mode="normal" in="SourceGraphic" in2="effect1_dropShadow_887_2577" result="shape"/>
</filter>
<linearGradient id="paint0_linear_887_2577" x1="25.8548" y1="9.97429" x2="6.63462" y2="29.1944" gradientUnits="userSpaceOnUse">
<stop stop-color="#00A0FF"/>
<stop offset="0.0066" stop-color="#00A1FF"/>
<stop offset="0.2601" stop-color="#00BEFF"/>
<stop offset="0.5122" stop-color="#00D2FF"/>
<stop offset="0.7604" stop-color="#00DFFF"/>
<stop offset="1" stop-color="#00E3FF"/>
</linearGradient>
<linearGradient id="paint1_linear_887_2577" x1="39.6364" y1="22.9067" x2="11.9252" y2="22.9067" gradientUnits="userSpaceOnUse">
<stop stop-color="#FFE000"/>
<stop offset="0.4087" stop-color="#FFBD00"/>
<stop offset="0.7754" stop-color="#FFA500"/>
<stop offset="1" stop-color="#FF9C00"/>
</linearGradient>
<linearGradient id="paint2_linear_887_2577" x1="29.3229" y1="25.5341" x2="3.258" y2="51.5991" gradientUnits="userSpaceOnUse">
<stop stop-color="#FF3A44"/>
<stop offset="1" stop-color="#C31162"/>
</linearGradient>
<linearGradient id="paint3_linear_887_2577" x1="9.2453" y1="0.202573" x2="20.884" y2="11.8413" gradientUnits="userSpaceOnUse">
<stop stop-color="#32A071"/>
<stop offset="0.0685" stop-color="#2DA771"/>
<stop offset="0.4762" stop-color="#15CF74"/>
<stop offset="0.8009" stop-color="#06E775"/>
<stop offset="1" stop-color="#00F076"/>
</linearGradient>
<clipPath id="clip0_887_2577">
<rect width="156" height="46" fill="white"/>
</clipPath>
</defs>
</svg>
