<svg width="171" height="31" viewBox="0 0 171 31" fill="none" xmlns="http://www.w3.org/2000/svg">
<path d="M17.8161 18.5991H11.8788V12.4009H17.8161V18.5991ZM5.9373 0C4.36297 0.00115863 2.85344 0.654559 1.74022 1.8167C0.627001 2.97885 0.00110986 4.55473 0 6.19825L0 9.29956C0 10.9434 0.625535 12.52 1.73899 13.6824C2.85245 14.8448 4.36263 15.4978 5.9373 15.4978V7.12996C5.9384 6.88321 6.03278 6.64689 6.19992 6.47241C6.36705 6.29793 6.59342 6.1994 6.82978 6.19825H22.8651C23.1011 6.19941 23.327 6.29808 23.4935 6.47268C23.6599 6.64729 23.7534 6.88361 23.7534 7.12996V9.31706H29.6949V0H5.9373ZM5.9373 21.7004H0V31H5.9373V21.7004ZM23.7534 15.4978V23.87C23.7534 24.116 23.6598 24.3519 23.4932 24.5258C23.3266 24.6997 23.1007 24.7974 22.8651 24.7974H11.8788V31H23.7534C24.5336 31 25.3062 30.8396 26.0271 30.5279C26.7479 30.2161 27.4029 29.7593 27.9546 29.1833C28.5064 28.6073 28.944 27.9236 29.2426 27.171C29.5412 26.4185 29.6949 25.6119 29.6949 24.7974V21.7004C29.6949 20.8859 29.5412 20.0793 29.2426 19.3268C28.944 18.5743 28.5064 17.8905 27.9546 17.3145C27.4029 16.7386 26.7479 16.2817 26.0271 15.97C25.3062 15.6582 24.5336 15.4978 23.7534 15.4978Z" fill="#1CA5F9"/>
<path d="M42.2441 18.774H46.275C46.4426 20.8474 47.7582 22.1641 49.8281 22.1641C51.7053 22.1641 52.9665 21.3461 52.9665 19.7932C52.9665 15.7908 42.8014 18.8615 42.8014 10.8217C42.8014 7.43173 45.6004 5.03467 49.5767 5.03467C53.8045 5.03467 56.6621 7.58045 56.771 11.4647H52.7695C52.6313 9.85942 51.4539 8.80523 49.5767 8.80523C47.9258 8.80523 46.8909 9.62321 46.8909 10.8217C46.8909 15.091 57.1942 11.6397 57.1942 19.7364C57.1942 23.5682 54.2235 25.9609 49.8281 25.9609C45.4328 25.9609 42.4117 23.1264 42.2441 18.774Z" fill="#1CA5F9"/>
<path d="M76.062 18.3714C76.062 13.7829 78.5551 10.7734 82.6697 10.7734C84.3793 10.7734 85.7787 11.4471 86.5623 12.4663V10.9965H90.48V25.7289H86.5623V24.1804C85.8625 25.2608 84.3793 25.9607 82.7242 25.9607C78.5551 25.9607 76.062 22.9512 76.062 18.3714ZM86.8137 18.3714C86.8137 15.8869 85.4435 14.2509 83.3401 14.2509C81.2367 14.2509 79.9001 15.8869 79.9001 18.3714C79.9001 20.856 81.2702 22.4657 83.3401 22.4657C85.41 22.4657 86.8137 20.8166 86.8137 18.3714Z" fill="#1CA5F9"/>
<path d="M63.7431 31.0002V24.4127C64.4974 25.4056 65.8717 25.9611 67.4639 25.9611C71.5241 25.9611 74.2685 22.9517 74.2685 18.3631C74.2685 13.7746 71.7545 10.7651 67.8033 10.7651C65.9806 10.7651 64.5812 11.465 63.7431 12.6067V10.997H59.8506V31.0002H63.7431ZM66.9904 14.2426C69.0352 14.2426 70.4346 15.8786 70.4346 18.3631C70.4346 20.8477 69.0352 22.4574 66.9904 22.4574C64.9457 22.4574 63.5169 20.8171 63.5169 18.3631C63.5169 15.9092 64.8912 14.2426 66.9904 14.2426Z" fill="#1CA5F9"/>
<path d="M92.885 18.3714C92.885 14.076 95.7971 10.7734 100.167 10.7734C103.863 10.7734 106.8 13.1093 107.052 16.5299H103.134C102.988 15.8617 102.623 15.2678 102.102 14.8515C101.581 14.4352 100.936 14.2227 100.28 14.2509C98.1854 14.2509 96.9284 15.9744 96.9284 18.3714C96.9284 20.7685 98.1854 22.4657 100.318 22.4657C100.967 22.4967 101.605 22.2923 102.125 21.8872C102.646 21.482 103.015 20.9012 103.172 20.2436H107.148C106.729 23.5155 103.817 25.9694 100.151 25.9694C95.7971 25.9607 92.885 22.6582 92.885 18.3714Z" fill="#1CA5F9"/>
<path d="M122.433 20.7292C121.872 23.918 119.186 25.9782 115.729 25.9782C110.944 25.9782 108.48 22.0414 108.48 18.3496C108.48 14.6578 110.663 10.7822 115.452 10.7822C120.434 10.7822 122.421 14.6097 122.421 17.9734C122.421 18.5289 122.395 18.9664 122.366 19.2857H112.214C112.494 21.3634 113.755 22.6494 115.712 22.6494C117.284 22.6494 118.318 22.0064 118.624 20.7467L122.433 20.7292ZM112.293 16.6962H118.536C118.523 16.2901 118.432 15.8909 118.27 15.5219C118.107 15.1528 117.876 14.8212 117.589 14.5464C117.302 14.2716 116.966 14.0591 116.6 13.9212C116.234 13.7834 115.845 13.723 115.457 13.7436C113.672 13.7436 112.607 14.6534 112.293 16.6962Z" fill="#1CA5F9"/>
<path d="M125.215 5.271H133.281C137.471 5.271 139.889 7.95676 139.889 11.7273C139.889 15.4979 137.434 18.188 133.281 18.188H129.443V25.7292H125.215V5.271ZM133.03 14.5356C134.987 14.5356 135.829 13.2233 135.829 11.7273C135.829 10.2313 134.991 8.92346 133.03 8.92346H129.443V14.5356H133.03Z" fill="#1CA5F9"/>
<path d="M140.97 18.3714C140.97 13.7829 143.463 10.7734 147.578 10.7734C149.283 10.7734 150.682 11.4471 151.47 12.4663V10.9965H155.388V25.7289H151.47V24.1804C150.77 25.2608 149.283 25.9607 147.632 25.9607C143.463 25.9607 140.97 22.9512 140.97 18.3714ZM151.722 18.3714C151.722 15.8869 150.347 14.2509 148.248 14.2509C146.149 14.2509 144.804 15.8869 144.804 18.3714C144.804 20.856 146.178 22.4657 148.248 22.4657C150.318 22.4657 151.722 20.8166 151.722 18.3714Z" fill="#1CA5F9"/>
<path d="M160.399 30.9998H164.116L165.876 25.672L171 10.9966H166.999L164.057 20.4974L161.091 10.9966H157.114L162.239 25.6108L160.399 30.9998Z" fill="#1CA5F9"/>
</svg>
