<svg width="160" height="27" viewBox="0 0 160 27" fill="none" xmlns="http://www.w3.org/2000/svg">
<path d="M16.67 16.1992H11.1147V10.8008H16.67V16.1992ZM5.55537 0C4.08231 0.00100913 2.66988 0.570099 1.62828 1.58229C0.586668 2.59448 0.00103846 3.96702 0 5.39848L0 8.09962C0 9.53138 0.585296 10.9045 1.62713 11.9169C2.66896 12.9293 4.08199 13.4981 5.55537 13.4981V6.20996C5.5564 5.99505 5.64471 5.78923 5.80109 5.63726C5.95747 5.48529 6.16928 5.39948 6.39043 5.39848H21.3942C21.615 5.39948 21.8264 5.48542 21.9822 5.6375C22.1379 5.78957 22.2254 5.9954 22.2254 6.20996V8.11486H27.7847V0H5.55537ZM5.55537 18.9004H0V27H5.55537V18.9004ZM22.2254 13.4981V20.79C22.2254 21.0042 22.1378 21.2097 21.9819 21.3612C21.8261 21.5126 21.6147 21.5977 21.3942 21.5977H11.1147V27H22.2254C22.9554 27 23.6783 26.8603 24.3528 26.5888C25.0273 26.3173 25.6402 25.9194 26.1564 25.4177C26.6726 24.9161 27.0821 24.3205 27.3615 23.6651C27.6409 23.0096 27.7847 22.3071 27.7847 21.5977V18.9004C27.7847 18.1909 27.6409 17.4884 27.3615 16.833C27.0821 16.1776 26.6726 15.582 26.1564 15.0804C25.6402 14.5787 25.0273 14.1808 24.3528 13.9093C23.6783 13.6378 22.9554 13.4981 22.2254 13.4981Z" fill="white"/>
<path d="M39.5266 16.3513H43.2981C43.455 18.1572 44.686 19.3039 46.6227 19.3039C48.3791 19.3039 49.5592 18.5915 49.5592 17.239C49.5592 13.753 40.048 16.4275 40.048 9.42512C40.048 6.47253 42.6669 4.38477 46.3875 4.38477C50.3433 4.38477 53.0171 6.60206 53.119 9.98516H49.3749C49.2456 8.58697 48.1439 7.66881 46.3875 7.66881C44.8428 7.66881 43.8745 8.38124 43.8745 9.42512C43.8745 13.1435 53.515 10.1376 53.515 17.1895C53.515 20.5269 50.7354 22.6108 46.6227 22.6108C42.5101 22.6108 39.6834 20.1421 39.5266 16.3513Z" fill="white"/>
<path d="M71.1689 16.0014C71.1689 12.0049 73.5017 9.38379 77.3516 9.38379C78.9512 9.38379 80.2606 9.9705 80.9937 10.8582V9.57809H84.6594V22.4095H80.9937V21.0608C80.339 22.0018 78.9512 22.6114 77.4026 22.6114C73.5016 22.6114 71.1689 19.9903 71.1689 16.0014ZM81.229 16.0014C81.229 13.8374 79.947 12.4126 77.9789 12.4126C76.0108 12.4126 74.7601 13.8374 74.7601 16.0014C74.7601 18.1654 76.0421 19.5674 77.9789 19.5674C79.9156 19.5674 81.229 18.1311 81.229 16.0014Z" fill="white"/>
<path d="M59.6426 27.0001V21.2625C60.3483 22.1274 61.6343 22.6112 63.1241 22.6112C66.923 22.6112 69.491 19.9901 69.491 15.9936C69.491 11.9971 67.1387 9.37598 63.4416 9.37598C61.7362 9.37598 60.4267 9.98554 59.6426 10.9799V9.5779H56.0005V27.0001H59.6426ZM62.681 12.4048C64.5943 12.4048 65.9037 13.8296 65.9037 15.9936C65.9037 18.1575 64.5943 19.5596 62.681 19.5596C60.7678 19.5596 59.4309 18.1309 59.4309 15.9936C59.4309 13.8563 60.7169 12.4048 62.681 12.4048Z" fill="white"/>
<path d="M86.9099 16.0014C86.9099 12.2602 89.6347 9.38379 93.7238 9.38379C97.1817 9.38379 99.9299 11.4182 100.165 14.3975H96.4995C96.3634 13.8155 96.0218 13.2983 95.5341 12.9357C95.0463 12.573 94.4432 12.3879 93.8296 12.4126C91.8694 12.4126 90.6932 13.9136 90.6932 16.0014C90.6932 18.0892 91.8694 19.5674 93.8649 19.5674C94.4716 19.5944 95.0691 19.4164 95.5559 19.0635C96.0427 18.7106 96.3886 18.2048 96.5348 17.632H100.255C99.8633 20.4817 97.1385 22.619 93.7081 22.619C89.6347 22.6114 86.9099 19.735 86.9099 16.0014Z" fill="white"/>
<path d="M114.557 18.0551C114.032 20.8324 111.519 22.6268 108.284 22.6268C103.807 22.6268 101.502 19.198 101.502 15.9825C101.502 12.7671 103.545 9.3916 108.026 9.3916C112.687 9.3916 114.546 12.7252 114.546 15.6549C114.546 16.1387 114.522 16.5197 114.495 16.7978H104.995C105.258 18.6075 106.438 19.7276 108.269 19.7276C109.739 19.7276 110.707 19.1675 110.994 18.0703L114.557 18.0551ZM105.07 14.5424H110.911C110.899 14.1888 110.814 13.8411 110.662 13.5197C110.509 13.1982 110.293 12.9094 110.025 12.6701C109.757 12.4307 109.442 12.2456 109.1 12.1256C108.757 12.0055 108.393 11.9529 108.03 11.9708C106.359 11.9708 105.364 12.7633 105.07 14.5424Z" fill="white"/>
<path d="M117.161 4.59082H124.708C128.628 4.59082 130.89 6.93003 130.89 10.2141C130.89 13.4981 128.593 15.8411 124.708 15.8411H121.116V22.4092H117.161V4.59082ZM124.472 12.66C126.303 12.66 127.091 11.517 127.091 10.2141C127.091 8.91112 126.307 7.772 124.472 7.772H121.116V12.66H124.472Z" fill="white"/>
<path d="M131.902 16.0014C131.902 12.0049 134.234 9.38379 138.084 9.38379C139.68 9.38379 140.989 9.9705 141.726 10.8582V9.57809H145.392V22.4095H141.726V21.0608C141.072 22.0018 139.68 22.6114 138.135 22.6114C134.234 22.6114 131.902 19.9903 131.902 16.0014ZM141.962 16.0014C141.962 13.8374 140.676 12.4126 138.712 12.4126C136.747 12.4126 135.489 13.8374 135.489 16.0014C135.489 18.1654 136.775 19.5674 138.712 19.5674C140.648 19.5674 141.962 18.1311 141.962 16.0014Z" fill="white"/>
<path d="M150.081 27.0003H153.558L155.205 22.36L160 9.57812H156.256L153.504 17.853L150.728 9.57812H147.007L151.802 22.3066L150.081 27.0003Z" fill="white"/>
</svg>
