<svg width="248" height="248" viewBox="0 0 248 248" fill="none" xmlns="http://www.w3.org/2000/svg">
<rect width="248" height="248" fill="#F0F0F0"/>
<rect x="-409" y="-183" width="708" height="722" rx="25" fill="white"/>
<g clip-path="url(#clip0_302_2)">
<path d="M248 0H0V248H248V0Z" fill="white"/>
<path d="M66.5366 12.0975H60.4878V18.1463H66.5366V12.0975Z" fill="#5860FF"/>
<path d="M84.6829 12.0975H78.6342V18.1463H84.6829V12.0975Z" fill="#5860FF"/>
<path d="M90.7316 12.0975H84.6829V18.1463H90.7316V12.0975Z" fill="#5860FF"/>
<path d="M127.024 12.0975H120.976V18.1463H127.024V12.0975Z" fill="#5860FF"/>
<path d="M139.122 12.0975H133.073V18.1463H139.122V12.0975Z" fill="#5860FF"/>
<path d="M145.171 12.0975H139.122V18.1463H145.171V12.0975Z" fill="#5860FF"/>
<path d="M163.317 12.0975H157.268V18.1463H163.317V12.0975Z" fill="#5860FF"/>
<path d="M169.366 12.0975H163.317V18.1463H169.366V12.0975Z" fill="#5860FF"/>
<path d="M187.512 12.0975H181.463V18.1463H187.512V12.0975Z" fill="#5860FF"/>
<path d="M66.5366 18.1464H60.4878V24.1951H66.5366V18.1464Z" fill="#5860FF"/>
<path d="M84.6829 18.1464H78.6342V24.1951H84.6829V18.1464Z" fill="#5860FF"/>
<path d="M96.7805 18.1464H90.7317V24.1951H96.7805V18.1464Z" fill="#5860FF"/>
<path d="M102.829 18.1464H96.7805V24.1951H102.829V18.1464Z" fill="#5860FF"/>
<path d="M108.878 18.1464H102.829V24.1951H108.878V18.1464Z" fill="#5860FF"/>
<path d="M133.073 18.1464H127.024V24.1951H133.073V18.1464Z" fill="#5860FF"/>
<path d="M139.122 18.1464H133.073V24.1951H139.122V18.1464Z" fill="#5860FF"/>
<path d="M145.171 18.1464H139.122V24.1951H145.171V18.1464Z" fill="#5860FF"/>
<path d="M157.268 18.1464H151.219V24.1951H157.268V18.1464Z" fill="#5860FF"/>
<path d="M163.317 18.1464H157.268V24.1951H163.317V18.1464Z" fill="#5860FF"/>
<path d="M169.366 18.1464H163.317V24.1951H169.366V18.1464Z" fill="#5860FF"/>
<path d="M84.6829 24.1951H78.6342V30.2438H84.6829V24.1951Z" fill="#5860FF"/>
<path d="M96.7805 24.1951H90.7317V30.2438H96.7805V24.1951Z" fill="#5860FF"/>
<path d="M108.878 24.1951H102.829V30.2438H108.878V24.1951Z" fill="#5860FF"/>
<path d="M127.024 24.1951H120.976V30.2438H127.024V24.1951Z" fill="#5860FF"/>
<path d="M139.122 24.1951H133.073V30.2438H139.122V24.1951Z" fill="#5860FF"/>
<path d="M163.317 24.1951H157.268V30.2438H163.317V24.1951Z" fill="#5860FF"/>
<path d="M169.366 24.1951H163.317V30.2438H169.366V24.1951Z" fill="#5860FF"/>
<path d="M175.415 24.1951H169.366V30.2438H175.415V24.1951Z" fill="#5860FF"/>
<path d="M66.5366 30.2439H60.4878V36.2927H66.5366V30.2439Z" fill="#5860FF"/>
<path d="M72.5854 30.2439H66.5366V36.2927H72.5854V30.2439Z" fill="#5860FF"/>
<path d="M78.6341 30.2439H72.5853V36.2927H78.6341V30.2439Z" fill="#5860FF"/>
<path d="M84.6829 30.2439H78.6342V36.2927H84.6829V30.2439Z" fill="#5860FF"/>
<path d="M90.7316 30.2439H84.6829V36.2927H90.7316V30.2439Z" fill="#5860FF"/>
<path d="M102.829 30.2439H96.7805V36.2927H102.829V30.2439Z" fill="#5860FF"/>
<path d="M108.878 30.2439H102.829V36.2927H108.878V30.2439Z" fill="#5860FF"/>
<path d="M114.927 30.2439H108.878V36.2927H114.927V30.2439Z" fill="#5860FF"/>
<path d="M120.976 30.2439H114.927V36.2927H120.976V30.2439Z" fill="#5860FF"/>
<path d="M127.024 30.2439H120.976V36.2927H127.024V30.2439Z" fill="#5860FF"/>
<path d="M133.073 30.2439H127.024V36.2927H133.073V30.2439Z" fill="#5860FF"/>
<path d="M139.122 30.2439H133.073V36.2927H139.122V30.2439Z" fill="#5860FF"/>
<path d="M151.219 30.2439H145.171V36.2927H151.219V30.2439Z" fill="#5860FF"/>
<path d="M169.366 30.2439H163.317V36.2927H169.366V30.2439Z" fill="#5860FF"/>
<path d="M175.415 30.2439H169.366V36.2927H175.415V30.2439Z" fill="#5860FF"/>
<path d="M78.6341 36.2926H72.5853V42.3414H78.6341V36.2926Z" fill="#5860FF"/>
<path d="M84.6829 36.2926H78.6342V42.3414H84.6829V36.2926Z" fill="#5860FF"/>
<path d="M114.927 36.2926H108.878V42.3414H114.927V36.2926Z" fill="#5860FF"/>
<path d="M120.976 36.2926H114.927V42.3414H120.976V36.2926Z" fill="#5860FF"/>
<path d="M133.073 36.2926H127.024V42.3414H133.073V36.2926Z" fill="#5860FF"/>
<path d="M145.171 36.2926H139.122V42.3414H145.171V36.2926Z" fill="#5860FF"/>
<path d="M151.219 36.2926H145.171V42.3414H151.219V36.2926Z" fill="#5860FF"/>
<path d="M163.317 36.2926H157.268V42.3414H163.317V36.2926Z" fill="#5860FF"/>
<path d="M175.415 36.2926H169.366V42.3414H175.415V36.2926Z" fill="#5860FF"/>
<path d="M181.463 36.2926H175.415V42.3414H181.463V36.2926Z" fill="#5860FF"/>
<path d="M187.512 36.2926H181.463V42.3414H187.512V36.2926Z" fill="#5860FF"/>
<path d="M72.5854 42.3414H66.5366V48.3902H72.5854V42.3414Z" fill="#5860FF"/>
<path d="M84.6829 42.3414H78.6342V48.3902H84.6829V42.3414Z" fill="#5860FF"/>
<path d="M108.878 42.3414H102.829V48.3902H108.878V42.3414Z" fill="#5860FF"/>
<path d="M114.927 42.3414H108.878V48.3902H114.927V42.3414Z" fill="#5860FF"/>
<path d="M133.073 42.3414H127.024V48.3902H133.073V42.3414Z" fill="#5860FF"/>
<path d="M145.171 42.3414H139.122V48.3902H145.171V42.3414Z" fill="#5860FF"/>
<path d="M163.317 42.3414H157.268V48.3902H163.317V42.3414Z" fill="#5860FF"/>
<path d="M169.366 42.3414H163.317V48.3902H169.366V42.3414Z" fill="#5860FF"/>
<path d="M175.415 42.3414H169.366V48.3902H175.415V42.3414Z" fill="#5860FF"/>
<path d="M66.5366 48.3903H60.4878V54.439H66.5366V48.3903Z" fill="#5860FF"/>
<path d="M78.6341 48.3903H72.5853V54.439H78.6341V48.3903Z" fill="#5860FF"/>
<path d="M90.7316 48.3903H84.6829V54.439H90.7316V48.3903Z" fill="#5860FF"/>
<path d="M102.829 48.3903H96.7805V54.439H102.829V48.3903Z" fill="#5860FF"/>
<path d="M114.927 48.3903H108.878V54.439H114.927V48.3903Z" fill="#5860FF"/>
<path d="M127.024 48.3903H120.976V54.439H127.024V48.3903Z" fill="#5860FF"/>
<path d="M139.122 48.3903H133.073V54.439H139.122V48.3903Z" fill="#5860FF"/>
<path d="M151.219 48.3903H145.171V54.439H151.219V48.3903Z" fill="#5860FF"/>
<path d="M163.317 48.3903H157.268V54.439H163.317V48.3903Z" fill="#5860FF"/>
<path d="M175.415 48.3903H169.366V54.439H175.415V48.3903Z" fill="#5860FF"/>
<path d="M187.512 48.3903H181.463V54.439H187.512V48.3903Z" fill="#5860FF"/>
<path d="M66.5366 54.439H60.4878V60.4877H66.5366V54.439Z" fill="#5860FF"/>
<path d="M90.7316 54.439H84.6829V60.4877H90.7316V54.439Z" fill="#5860FF"/>
<path d="M102.829 54.439H96.7805V60.4877H102.829V54.439Z" fill="#5860FF"/>
<path d="M120.976 54.439H114.927V60.4877H120.976V54.439Z" fill="#5860FF"/>
<path d="M127.024 54.439H120.976V60.4877H127.024V54.439Z" fill="#5860FF"/>
<path d="M139.122 54.439H133.073V60.4877H139.122V54.439Z" fill="#5860FF"/>
<path d="M145.171 54.439H139.122V60.4877H145.171V54.439Z" fill="#5860FF"/>
<path d="M163.317 54.439H157.268V60.4877H163.317V54.439Z" fill="#5860FF"/>
<path d="M181.463 54.439H175.415V60.4877H181.463V54.439Z" fill="#5860FF"/>
<path d="M187.512 54.439H181.463V60.4877H187.512V54.439Z" fill="#5860FF"/>
<path d="M18.1463 60.4878H12.0975V66.5366H18.1463V60.4878Z" fill="#5860FF"/>
<path d="M30.2438 60.4878H24.1951V66.5366H30.2438V60.4878Z" fill="#5860FF"/>
<path d="M36.2927 60.4878H30.2439V66.5366H36.2927V60.4878Z" fill="#5860FF"/>
<path d="M48.3902 60.4878H42.3414V66.5366H48.3902V60.4878Z" fill="#5860FF"/>
<path d="M54.439 60.4878H48.3903V66.5366H54.439V60.4878Z" fill="#5860FF"/>
<path d="M60.4877 60.4878H54.439V66.5366H60.4877V60.4878Z" fill="#5860FF"/>
<path d="M72.5854 60.4878H66.5366V66.5366H72.5854V60.4878Z" fill="#5860FF"/>
<path d="M78.6341 60.4878H72.5853V66.5366H78.6341V60.4878Z" fill="#5860FF"/>
<path d="M84.6829 60.4878H78.6342V66.5366H84.6829V60.4878Z" fill="#5860FF"/>
<path d="M90.7316 60.4878H84.6829V66.5366H90.7316V60.4878Z" fill="#5860FF"/>
<path d="M96.7805 60.4878H90.7317V66.5366H96.7805V60.4878Z" fill="#5860FF"/>
<path d="M108.878 60.4878H102.829V66.5366H108.878V60.4878Z" fill="#5860FF"/>
<path d="M114.927 60.4878H108.878V66.5366H114.927V60.4878Z" fill="#5860FF"/>
<path d="M133.073 60.4878H127.024V66.5366H133.073V60.4878Z" fill="#5860FF"/>
<path d="M139.122 60.4878H133.073V66.5366H139.122V60.4878Z" fill="#5860FF"/>
<path d="M157.268 60.4878H151.219V66.5366H157.268V60.4878Z" fill="#5860FF"/>
<path d="M175.415 60.4878H169.366V66.5366H175.415V60.4878Z" fill="#5860FF"/>
<path d="M181.463 60.4878H175.415V66.5366H181.463V60.4878Z" fill="#5860FF"/>
<path d="M187.512 60.4878H181.463V66.5366H187.512V60.4878Z" fill="#5860FF"/>
<path d="M199.61 60.4878H193.561V66.5366H199.61V60.4878Z" fill="#5860FF"/>
<path d="M217.756 60.4878H211.707V66.5366H217.756V60.4878Z" fill="#5860FF"/>
<path d="M229.854 60.4878H223.805V66.5366H229.854V60.4878Z" fill="#5860FF"/>
<path d="M235.902 60.4878H229.854V66.5366H235.902V60.4878Z" fill="#5860FF"/>
<path d="M42.3414 66.5366H36.2926V72.5854H42.3414V66.5366Z" fill="#5860FF"/>
<path d="M60.4877 66.5366H54.439V72.5854H60.4877V66.5366Z" fill="#5860FF"/>
<path d="M66.5366 66.5366H60.4878V72.5854H66.5366V66.5366Z" fill="#5860FF"/>
<path d="M78.6341 66.5366H72.5853V72.5854H78.6341V66.5366Z" fill="#5860FF"/>
<path d="M108.878 66.5366H102.829V72.5854H108.878V66.5366Z" fill="#5860FF"/>
<path d="M114.927 66.5366H108.878V72.5854H114.927V66.5366Z" fill="#5860FF"/>
<path d="M120.976 66.5366H114.927V72.5854H120.976V66.5366Z" fill="#5860FF"/>
<path d="M145.171 66.5366H139.122V72.5854H145.171V66.5366Z" fill="#5860FF"/>
<path d="M157.268 66.5366H151.219V72.5854H157.268V66.5366Z" fill="#5860FF"/>
<path d="M175.415 66.5366H169.366V72.5854H175.415V66.5366Z" fill="#5860FF"/>
<path d="M187.512 66.5366H181.463V72.5854H187.512V66.5366Z" fill="#5860FF"/>
<path d="M205.659 66.5366H199.61V72.5854H205.659V66.5366Z" fill="#5860FF"/>
<path d="M229.854 66.5366H223.805V72.5854H229.854V66.5366Z" fill="#5860FF"/>
<path d="M18.1463 72.5853H12.0975V78.6341H18.1463V72.5853Z" fill="#5860FF"/>
<path d="M42.3414 72.5853H36.2926V78.6341H42.3414V72.5853Z" fill="#5860FF"/>
<path d="M54.439 72.5853H48.3903V78.6341H54.439V72.5853Z" fill="#5860FF"/>
<path d="M72.5854 72.5853H66.5366V78.6341H72.5854V72.5853Z" fill="#5860FF"/>
<path d="M84.6829 72.5853H78.6342V78.6341H84.6829V72.5853Z" fill="#5860FF"/>
<path d="M108.878 72.5853H102.829V78.6341H108.878V72.5853Z" fill="#5860FF"/>
<path d="M127.024 72.5853H120.976V78.6341H127.024V72.5853Z" fill="#5860FF"/>
<path d="M151.219 72.5853H145.171V78.6341H151.219V72.5853Z" fill="#5860FF"/>
<path d="M157.268 72.5853H151.219V78.6341H157.268V72.5853Z" fill="#5860FF"/>
<path d="M169.366 72.5853H163.317V78.6341H169.366V72.5853Z" fill="#5860FF"/>
<path d="M193.561 72.5853H187.512V78.6341H193.561V72.5853Z" fill="#5860FF"/>
<path d="M18.1463 78.6342H12.0975V84.6829H18.1463V78.6342Z" fill="#5860FF"/>
<path d="M24.1951 78.6342H18.1464V84.6829H24.1951V78.6342Z" fill="#5860FF"/>
<path d="M30.2438 78.6342H24.1951V84.6829H30.2438V78.6342Z" fill="#5860FF"/>
<path d="M36.2927 78.6342H30.2439V84.6829H36.2927V78.6342Z" fill="#5860FF"/>
<path d="M66.5366 78.6342H60.4878V84.6829H66.5366V78.6342Z" fill="#5860FF"/>
<path d="M72.5854 78.6342H66.5366V84.6829H72.5854V78.6342Z" fill="#5860FF"/>
<path d="M84.6829 78.6342H78.6342V84.6829H84.6829V78.6342Z" fill="#5860FF"/>
<path d="M96.7805 78.6342H90.7317V84.6829H96.7805V78.6342Z" fill="#5860FF"/>
<path d="M108.878 78.6342H102.829V84.6829H108.878V78.6342Z" fill="#5860FF"/>
<path d="M127.024 78.6342H120.976V84.6829H127.024V78.6342Z" fill="#5860FF"/>
<path d="M133.073 78.6342H127.024V84.6829H133.073V78.6342Z" fill="#5860FF"/>
<path d="M151.219 78.6342H145.171V84.6829H151.219V78.6342Z" fill="#5860FF"/>
<path d="M163.317 78.6342H157.268V84.6829H163.317V78.6342Z" fill="#5860FF"/>
<path d="M169.366 78.6342H163.317V84.6829H169.366V78.6342Z" fill="#5860FF"/>
<path d="M175.415 78.6342H169.366V84.6829H175.415V78.6342Z" fill="#5860FF"/>
<path d="M205.659 78.6342H199.61V84.6829H205.659V78.6342Z" fill="#5860FF"/>
<path d="M223.805 78.6342H217.756V84.6829H223.805V78.6342Z" fill="#5860FF"/>
<path d="M18.1463 84.6829H12.0975V90.7316H18.1463V84.6829Z" fill="#5860FF"/>
<path d="M42.3414 84.6829H36.2926V90.7316H42.3414V84.6829Z" fill="#5860FF"/>
<path d="M54.439 84.6829H48.3903V90.7316H54.439V84.6829Z" fill="#5860FF"/>
<path d="M66.5366 84.6829H60.4878V90.7316H66.5366V84.6829Z" fill="#5860FF"/>
<path d="M72.5854 84.6829H66.5366V90.7316H72.5854V84.6829Z" fill="#5860FF"/>
<path d="M78.6341 84.6829H72.5853V90.7316H78.6341V84.6829Z" fill="#5860FF"/>
<path d="M84.6829 84.6829H78.6342V90.7316H84.6829V84.6829Z" fill="#5860FF"/>
<path d="M96.7805 84.6829H90.7317V90.7316H96.7805V84.6829Z" fill="#5860FF"/>
<path d="M102.829 84.6829H96.7805V90.7316H102.829V84.6829Z" fill="#5860FF"/>
<path d="M114.927 84.6829H108.878V90.7316H114.927V84.6829Z" fill="#5860FF"/>
<path d="M120.976 84.6829H114.927V90.7316H120.976V84.6829Z" fill="#5860FF"/>
<path d="M139.122 84.6829H133.073V90.7316H139.122V84.6829Z" fill="#5860FF"/>
<path d="M151.219 84.6829H145.171V90.7316H151.219V84.6829Z" fill="#5860FF"/>
<path d="M157.268 84.6829H151.219V90.7316H157.268V84.6829Z" fill="#5860FF"/>
<path d="M163.317 84.6829H157.268V90.7316H163.317V84.6829Z" fill="#5860FF"/>
<path d="M169.366 84.6829H163.317V90.7316H169.366V84.6829Z" fill="#5860FF"/>
<path d="M175.415 84.6829H169.366V90.7316H175.415V84.6829Z" fill="#5860FF"/>
<path d="M193.561 84.6829H187.512V90.7316H193.561V84.6829Z" fill="#5860FF"/>
<path d="M199.61 84.6829H193.561V90.7316H199.61V84.6829Z" fill="#5860FF"/>
<path d="M205.659 84.6829H199.61V90.7316H205.659V84.6829Z" fill="#5860FF"/>
<path d="M211.707 84.6829H205.659V90.7316H211.707V84.6829Z" fill="#5860FF"/>
<path d="M223.805 84.6829H217.756V90.7316H223.805V84.6829Z" fill="#5860FF"/>
<path d="M229.854 84.6829H223.805V90.7316H229.854V84.6829Z" fill="#5860FF"/>
<path d="M235.902 84.6829H229.854V90.7316H235.902V84.6829Z" fill="#5860FF"/>
<path d="M24.1951 90.7317H18.1464V96.7805H24.1951V90.7317Z" fill="#5860FF"/>
<path d="M30.2438 90.7317H24.1951V96.7805H30.2438V90.7317Z" fill="#5860FF"/>
<path d="M36.2927 90.7317H30.2439V96.7805H36.2927V90.7317Z" fill="#5860FF"/>
<path d="M66.5366 90.7317H60.4878V96.7805H66.5366V90.7317Z" fill="#5860FF"/>
<path d="M72.5854 90.7317H66.5366V96.7805H72.5854V90.7317Z" fill="#5860FF"/>
<path d="M84.6829 90.7317H78.6342V96.7805H84.6829V90.7317Z" fill="#5860FF"/>
<path d="M96.7805 90.7317H90.7317V96.7805H96.7805V90.7317Z" fill="#5860FF"/>
<path d="M102.829 90.7317H96.7805V96.7805H102.829V90.7317Z" fill="#5860FF"/>
<path d="M108.878 90.7317H102.829V96.7805H108.878V90.7317Z" fill="#5860FF"/>
<path d="M114.927 90.7317H108.878V96.7805H114.927V90.7317Z" fill="#5860FF"/>
<path d="M133.073 90.7317H127.024V96.7805H133.073V90.7317Z" fill="#5860FF"/>
<path d="M175.415 90.7317H169.366V96.7805H175.415V90.7317Z" fill="#5860FF"/>
<path d="M181.463 90.7317H175.415V96.7805H181.463V90.7317Z" fill="#5860FF"/>
<path d="M187.512 90.7317H181.463V96.7805H187.512V90.7317Z" fill="#5860FF"/>
<path d="M193.561 90.7317H187.512V96.7805H193.561V90.7317Z" fill="#5860FF"/>
<path d="M199.61 90.7317H193.561V96.7805H199.61V90.7317Z" fill="#5860FF"/>
<path d="M205.659 90.7317H199.61V96.7805H205.659V90.7317Z" fill="#5860FF"/>
<path d="M211.707 90.7317H205.659V96.7805H211.707V90.7317Z" fill="#5860FF"/>
<path d="M217.756 90.7317H211.707V96.7805H217.756V90.7317Z" fill="#5860FF"/>
<path d="M229.854 90.7317H223.805V96.7805H229.854V90.7317Z" fill="#5860FF"/>
<path d="M235.902 90.7317H229.854V96.7805H235.902V90.7317Z" fill="#5860FF"/>
<path d="M18.1463 96.7805H12.0975V102.829H18.1463V96.7805Z" fill="#5860FF"/>
<path d="M24.1951 96.7805H18.1464V102.829H24.1951V96.7805Z" fill="#5860FF"/>
<path d="M42.3414 96.7805H36.2926V102.829H42.3414V96.7805Z" fill="#5860FF"/>
<path d="M54.439 96.7805H48.3903V102.829H54.439V96.7805Z" fill="#5860FF"/>
<path d="M60.4877 96.7805H54.439V102.829H60.4877V96.7805Z" fill="#5860FF"/>
<path d="M66.5366 96.7805H60.4878V102.829H66.5366V96.7805Z" fill="#5860FF"/>
<path d="M78.6341 96.7805H72.5853V102.829H78.6341V96.7805Z" fill="#5860FF"/>
<path d="M90.7316 96.7805H84.6829V102.829H90.7316V96.7805Z" fill="#5860FF"/>
<path d="M96.7805 96.7805H90.7317V102.829H96.7805V96.7805Z" fill="#5860FF"/>
<path d="M114.927 96.7805H108.878V102.829H114.927V96.7805Z" fill="#5860FF"/>
<path d="M120.976 96.7805H114.927V102.829H120.976V96.7805Z" fill="#5860FF"/>
<path d="M127.024 96.7805H120.976V102.829H127.024V96.7805Z" fill="#5860FF"/>
<path d="M133.073 96.7805H127.024V102.829H133.073V96.7805Z" fill="#5860FF"/>
<path d="M151.219 96.7805H145.171V102.829H151.219V96.7805Z" fill="#5860FF"/>
<path d="M163.317 96.7805H157.268V102.829H163.317V96.7805Z" fill="#5860FF"/>
<path d="M169.366 96.7805H163.317V102.829H169.366V96.7805Z" fill="#5860FF"/>
<path d="M175.415 96.7805H169.366V102.829H175.415V96.7805Z" fill="#5860FF"/>
<path d="M193.561 96.7805H187.512V102.829H193.561V96.7805Z" fill="#5860FF"/>
<path d="M211.707 96.7805H205.659V102.829H211.707V96.7805Z" fill="#5860FF"/>
<path d="M223.805 96.7805H217.756V102.829H223.805V96.7805Z" fill="#5860FF"/>
<path d="M229.854 96.7805H223.805V102.829H229.854V96.7805Z" fill="#5860FF"/>
<path d="M24.1951 102.829H18.1464V108.878H24.1951V102.829Z" fill="#5860FF"/>
<path d="M36.2927 102.829H30.2439V108.878H36.2927V102.829Z" fill="#5860FF"/>
<path d="M48.3902 102.829H42.3414V108.878H48.3902V102.829Z" fill="#5860FF"/>
<path d="M66.5366 102.829H60.4878V108.878H66.5366V102.829Z" fill="#5860FF"/>
<path d="M72.5854 102.829H66.5366V108.878H72.5854V102.829Z" fill="#5860FF"/>
<path d="M78.6341 102.829H72.5853V108.878H78.6341V102.829Z" fill="#5860FF"/>
<path d="M90.7316 102.829H84.6829V108.878H90.7316V102.829Z" fill="#5860FF"/>
<path d="M96.7805 102.829H90.7317V108.878H96.7805V102.829Z" fill="#5860FF"/>
<path d="M102.829 102.829H96.7805V108.878H102.829V102.829Z" fill="#5860FF"/>
<path d="M108.878 102.829H102.829V108.878H108.878V102.829Z" fill="#5860FF"/>
<path d="M114.927 102.829H108.878V108.878H114.927V102.829Z" fill="#5860FF"/>
<path d="M120.976 102.829H114.927V108.878H120.976V102.829Z" fill="#5860FF"/>
<path d="M127.024 102.829H120.976V108.878H127.024V102.829Z" fill="#5860FF"/>
<path d="M145.171 102.829H139.122V108.878H145.171V102.829Z" fill="#5860FF"/>
<path d="M151.219 102.829H145.171V108.878H151.219V102.829Z" fill="#5860FF"/>
<path d="M187.512 102.829H181.463V108.878H187.512V102.829Z" fill="#5860FF"/>
<path d="M193.561 102.829H187.512V108.878H193.561V102.829Z" fill="#5860FF"/>
<path d="M199.61 102.829H193.561V108.878H199.61V102.829Z" fill="#5860FF"/>
<path d="M205.659 102.829H199.61V108.878H205.659V102.829Z" fill="#5860FF"/>
<path d="M211.707 102.829H205.659V108.878H211.707V102.829Z" fill="#5860FF"/>
<path d="M229.854 102.829H223.805V108.878H229.854V102.829Z" fill="#5860FF"/>
<path d="M235.902 102.829H229.854V108.878H235.902V102.829Z" fill="#5860FF"/>
<path d="M18.1463 108.878H12.0975V114.927H18.1463V108.878Z" fill="#5860FF"/>
<path d="M30.2438 108.878H24.1951V114.927H30.2438V108.878Z" fill="#5860FF"/>
<path d="M48.3902 108.878H42.3414V114.927H48.3902V108.878Z" fill="#5860FF"/>
<path d="M54.439 108.878H48.3903V114.927H54.439V108.878Z" fill="#5860FF"/>
<path d="M60.4877 108.878H54.439V114.927H60.4877V108.878Z" fill="#5860FF"/>
<path d="M78.6341 108.878H72.5853V114.927H78.6341V108.878Z" fill="#5860FF"/>
<path d="M102.829 108.878H96.7805V114.927H102.829V108.878Z" fill="#5860FF"/>
<path d="M108.878 108.878H102.829V114.927H108.878V108.878Z" fill="#5860FF"/>
<path d="M114.927 108.878H108.878V114.927H114.927V108.878Z" fill="#5860FF"/>
<path d="M120.976 108.878H114.927V114.927H120.976V108.878Z" fill="#5860FF"/>
<path d="M127.024 108.878H120.976V114.927H127.024V108.878Z" fill="#5860FF"/>
<path d="M139.122 108.878H133.073V114.927H139.122V108.878Z" fill="#5860FF"/>
<path d="M169.366 108.878H163.317V114.927H169.366V108.878Z" fill="#5860FF"/>
<path d="M175.415 108.878H169.366V114.927H175.415V108.878Z" fill="#5860FF"/>
<path d="M217.756 108.878H211.707V114.927H217.756V108.878Z" fill="#5860FF"/>
<path d="M223.805 108.878H217.756V114.927H223.805V108.878Z" fill="#5860FF"/>
<path d="M229.854 108.878H223.805V114.927H229.854V108.878Z" fill="#5860FF"/>
<path d="M235.902 108.878H229.854V114.927H235.902V108.878Z" fill="#5860FF"/>
<path d="M30.2438 114.927H24.1951V120.976H30.2438V114.927Z" fill="#5860FF"/>
<path d="M36.2927 114.927H30.2439V120.976H36.2927V114.927Z" fill="#5860FF"/>
<path d="M48.3902 114.927H42.3414V120.976H48.3902V114.927Z" fill="#5860FF"/>
<path d="M60.4877 114.927H54.439V120.976H60.4877V114.927Z" fill="#5860FF"/>
<path d="M66.5366 114.927H60.4878V120.976H66.5366V114.927Z" fill="#5860FF"/>
<path d="M72.5854 114.927H66.5366V120.976H72.5854V114.927Z" fill="#5860FF"/>
<path d="M84.6829 114.927H78.6342V120.976H84.6829V114.927Z" fill="#5860FF"/>
<path d="M96.7805 114.927H90.7317V120.976H96.7805V114.927Z" fill="#5860FF"/>
<path d="M102.829 114.927H96.7805V120.976H102.829V114.927Z" fill="#5860FF"/>
<path d="M114.927 114.927H108.878V120.976H114.927V114.927Z" fill="#5860FF"/>
<path d="M133.073 114.927H127.024V120.976H133.073V114.927Z" fill="#5860FF"/>
<path d="M139.122 114.927H133.073V120.976H139.122V114.927Z" fill="#5860FF"/>
<path d="M145.171 114.927H139.122V120.976H145.171V114.927Z" fill="#5860FF"/>
<path d="M157.268 114.927H151.219V120.976H157.268V114.927Z" fill="#5860FF"/>
<path d="M163.317 114.927H157.268V120.976H163.317V114.927Z" fill="#5860FF"/>
<path d="M181.463 114.927H175.415V120.976H181.463V114.927Z" fill="#5860FF"/>
<path d="M193.561 114.927H187.512V120.976H193.561V114.927Z" fill="#5860FF"/>
<path d="M199.61 114.927H193.561V120.976H199.61V114.927Z" fill="#5860FF"/>
<path d="M217.756 114.927H211.707V120.976H217.756V114.927Z" fill="#5860FF"/>
<path d="M229.854 114.927H223.805V120.976H229.854V114.927Z" fill="#5860FF"/>
<path d="M235.902 114.927H229.854V120.976H235.902V114.927Z" fill="#5860FF"/>
<path d="M30.2438 120.976H24.1951V127.024H30.2438V120.976Z" fill="#5860FF"/>
<path d="M48.3902 120.976H42.3414V127.024H48.3902V120.976Z" fill="#5860FF"/>
<path d="M54.439 120.976H48.3903V127.024H54.439V120.976Z" fill="#5860FF"/>
<path d="M60.4877 120.976H54.439V127.024H60.4877V120.976Z" fill="#5860FF"/>
<path d="M78.6341 120.976H72.5853V127.024H78.6341V120.976Z" fill="#5860FF"/>
<path d="M90.7316 120.976H84.6829V127.024H90.7316V120.976Z" fill="#5860FF"/>
<path d="M96.7805 120.976H90.7317V127.024H96.7805V120.976Z" fill="#5860FF"/>
<path d="M102.829 120.976H96.7805V127.024H102.829V120.976Z" fill="#5860FF"/>
<path d="M108.878 120.976H102.829V127.024H108.878V120.976Z" fill="#5860FF"/>
<path d="M114.927 120.976H108.878V127.024H114.927V120.976Z" fill="#5860FF"/>
<path d="M133.073 120.976H127.024V127.024H133.073V120.976Z" fill="#5860FF"/>
<path d="M151.219 120.976H145.171V127.024H151.219V120.976Z" fill="#5860FF"/>
<path d="M175.415 120.976H169.366V127.024H175.415V120.976Z" fill="#5860FF"/>
<path d="M181.463 120.976H175.415V127.024H181.463V120.976Z" fill="#5860FF"/>
<path d="M187.512 120.976H181.463V127.024H187.512V120.976Z" fill="#5860FF"/>
<path d="M193.561 120.976H187.512V127.024H193.561V120.976Z" fill="#5860FF"/>
<path d="M211.707 120.976H205.659V127.024H211.707V120.976Z" fill="#5860FF"/>
<path d="M229.854 120.976H223.805V127.024H229.854V120.976Z" fill="#5860FF"/>
<path d="M235.902 120.976H229.854V127.024H235.902V120.976Z" fill="#5860FF"/>
<path d="M30.2438 127.024H24.1951V133.073H30.2438V127.024Z" fill="#5860FF"/>
<path d="M42.3414 127.024H36.2926V133.073H42.3414V127.024Z" fill="#5860FF"/>
<path d="M48.3902 127.024H42.3414V133.073H48.3902V127.024Z" fill="#5860FF"/>
<path d="M60.4877 127.024H54.439V133.073H60.4877V127.024Z" fill="#5860FF"/>
<path d="M78.6341 127.024H72.5853V133.073H78.6341V127.024Z" fill="#5860FF"/>
<path d="M84.6829 127.024H78.6342V133.073H84.6829V127.024Z" fill="#5860FF"/>
<path d="M90.7316 127.024H84.6829V133.073H90.7316V127.024Z" fill="#5860FF"/>
<path d="M120.976 127.024H114.927V133.073H120.976V127.024Z" fill="#5860FF"/>
<path d="M133.073 127.024H127.024V133.073H133.073V127.024Z" fill="#5860FF"/>
<path d="M151.219 127.024H145.171V133.073H151.219V127.024Z" fill="#5860FF"/>
<path d="M157.268 127.024H151.219V133.073H157.268V127.024Z" fill="#5860FF"/>
<path d="M175.415 127.024H169.366V133.073H175.415V127.024Z" fill="#5860FF"/>
<path d="M193.561 127.024H187.512V133.073H193.561V127.024Z" fill="#5860FF"/>
<path d="M205.659 127.024H199.61V133.073H205.659V127.024Z" fill="#5860FF"/>
<path d="M217.756 127.024H211.707V133.073H217.756V127.024Z" fill="#5860FF"/>
<path d="M229.854 127.024H223.805V133.073H229.854V127.024Z" fill="#5860FF"/>
<path d="M18.1463 133.073H12.0975V139.122H18.1463V133.073Z" fill="#5860FF"/>
<path d="M24.1951 133.073H18.1464V139.122H24.1951V133.073Z" fill="#5860FF"/>
<path d="M36.2927 133.073H30.2439V139.122H36.2927V133.073Z" fill="#5860FF"/>
<path d="M42.3414 133.073H36.2926V139.122H42.3414V133.073Z" fill="#5860FF"/>
<path d="M54.439 133.073H48.3903V139.122H54.439V133.073Z" fill="#5860FF"/>
<path d="M66.5366 133.073H60.4878V139.122H66.5366V133.073Z" fill="#5860FF"/>
<path d="M72.5854 133.073H66.5366V139.122H72.5854V133.073Z" fill="#5860FF"/>
<path d="M96.7805 133.073H90.7317V139.122H96.7805V133.073Z" fill="#5860FF"/>
<path d="M102.829 133.073H96.7805V139.122H102.829V133.073Z" fill="#5860FF"/>
<path d="M114.927 133.073H108.878V139.122H114.927V133.073Z" fill="#5860FF"/>
<path d="M120.976 133.073H114.927V139.122H120.976V133.073Z" fill="#5860FF"/>
<path d="M127.024 133.073H120.976V139.122H127.024V133.073Z" fill="#5860FF"/>
<path d="M139.122 133.073H133.073V139.122H139.122V133.073Z" fill="#5860FF"/>
<path d="M145.171 133.073H139.122V139.122H145.171V133.073Z" fill="#5860FF"/>
<path d="M157.268 133.073H151.219V139.122H157.268V133.073Z" fill="#5860FF"/>
<path d="M175.415 133.073H169.366V139.122H175.415V133.073Z" fill="#5860FF"/>
<path d="M187.512 133.073H181.463V139.122H187.512V133.073Z" fill="#5860FF"/>
<path d="M193.561 133.073H187.512V139.122H193.561V133.073Z" fill="#5860FF"/>
<path d="M205.659 133.073H199.61V139.122H205.659V133.073Z" fill="#5860FF"/>
<path d="M211.707 133.073H205.659V139.122H211.707V133.073Z" fill="#5860FF"/>
<path d="M235.902 133.073H229.854V139.122H235.902V133.073Z" fill="#5860FF"/>
<path d="M24.1951 139.122H18.1464V145.171H24.1951V139.122Z" fill="#5860FF"/>
<path d="M30.2438 139.122H24.1951V145.171H30.2438V139.122Z" fill="#5860FF"/>
<path d="M66.5366 139.122H60.4878V145.171H66.5366V139.122Z" fill="#5860FF"/>
<path d="M72.5854 139.122H66.5366V145.171H72.5854V139.122Z" fill="#5860FF"/>
<path d="M78.6341 139.122H72.5853V145.171H78.6341V139.122Z" fill="#5860FF"/>
<path d="M90.7316 139.122H84.6829V145.171H90.7316V139.122Z" fill="#5860FF"/>
<path d="M96.7805 139.122H90.7317V145.171H96.7805V139.122Z" fill="#5860FF"/>
<path d="M114.927 139.122H108.878V145.171H114.927V139.122Z" fill="#5860FF"/>
<path d="M127.024 139.122H120.976V145.171H127.024V139.122Z" fill="#5860FF"/>
<path d="M133.073 139.122H127.024V145.171H133.073V139.122Z" fill="#5860FF"/>
<path d="M139.122 139.122H133.073V145.171H139.122V139.122Z" fill="#5860FF"/>
<path d="M151.219 139.122H145.171V145.171H151.219V139.122Z" fill="#5860FF"/>
<path d="M157.268 139.122H151.219V145.171H157.268V139.122Z" fill="#5860FF"/>
<path d="M169.366 139.122H163.317V145.171H169.366V139.122Z" fill="#5860FF"/>
<path d="M187.512 139.122H181.463V145.171H187.512V139.122Z" fill="#5860FF"/>
<path d="M217.756 139.122H211.707V145.171H217.756V139.122Z" fill="#5860FF"/>
<path d="M42.3414 145.171H36.2926V151.219H42.3414V145.171Z" fill="#5860FF"/>
<path d="M48.3902 145.171H42.3414V151.219H48.3902V145.171Z" fill="#5860FF"/>
<path d="M54.439 145.171H48.3903V151.219H54.439V145.171Z" fill="#5860FF"/>
<path d="M66.5366 145.171H60.4878V151.219H66.5366V145.171Z" fill="#5860FF"/>
<path d="M72.5854 145.171H66.5366V151.219H72.5854V145.171Z" fill="#5860FF"/>
<path d="M114.927 145.171H108.878V151.219H114.927V145.171Z" fill="#5860FF"/>
<path d="M120.976 145.171H114.927V151.219H120.976V145.171Z" fill="#5860FF"/>
<path d="M145.171 145.171H139.122V151.219H145.171V145.171Z" fill="#5860FF"/>
<path d="M151.219 145.171H145.171V151.219H151.219V145.171Z" fill="#5860FF"/>
<path d="M157.268 145.171H151.219V151.219H157.268V145.171Z" fill="#5860FF"/>
<path d="M163.317 145.171H157.268V151.219H163.317V145.171Z" fill="#5860FF"/>
<path d="M169.366 145.171H163.317V151.219H169.366V145.171Z" fill="#5860FF"/>
<path d="M193.561 145.171H187.512V151.219H193.561V145.171Z" fill="#5860FF"/>
<path d="M205.659 145.171H199.61V151.219H205.659V145.171Z" fill="#5860FF"/>
<path d="M18.1463 151.219H12.0975V157.268H18.1463V151.219Z" fill="#5860FF"/>
<path d="M24.1951 151.219H18.1464V157.268H24.1951V151.219Z" fill="#5860FF"/>
<path d="M66.5366 151.219H60.4878V157.268H66.5366V151.219Z" fill="#5860FF"/>
<path d="M72.5854 151.219H66.5366V157.268H72.5854V151.219Z" fill="#5860FF"/>
<path d="M78.6341 151.219H72.5853V157.268H78.6341V151.219Z" fill="#5860FF"/>
<path d="M84.6829 151.219H78.6342V157.268H84.6829V151.219Z" fill="#5860FF"/>
<path d="M90.7316 151.219H84.6829V157.268H90.7316V151.219Z" fill="#5860FF"/>
<path d="M102.829 151.219H96.7805V157.268H102.829V151.219Z" fill="#5860FF"/>
<path d="M114.927 151.219H108.878V157.268H114.927V151.219Z" fill="#5860FF"/>
<path d="M127.024 151.219H120.976V157.268H127.024V151.219Z" fill="#5860FF"/>
<path d="M133.073 151.219H127.024V157.268H133.073V151.219Z" fill="#5860FF"/>
<path d="M145.171 151.219H139.122V157.268H145.171V151.219Z" fill="#5860FF"/>
<path d="M151.219 151.219H145.171V157.268H151.219V151.219Z" fill="#5860FF"/>
<path d="M157.268 151.219H151.219V157.268H157.268V151.219Z" fill="#5860FF"/>
<path d="M163.317 151.219H157.268V157.268H163.317V151.219Z" fill="#5860FF"/>
<path d="M169.366 151.219H163.317V157.268H169.366V151.219Z" fill="#5860FF"/>
<path d="M181.463 151.219H175.415V157.268H181.463V151.219Z" fill="#5860FF"/>
<path d="M193.561 151.219H187.512V157.268H193.561V151.219Z" fill="#5860FF"/>
<path d="M199.61 151.219H193.561V157.268H199.61V151.219Z" fill="#5860FF"/>
<path d="M211.707 151.219H205.659V157.268H211.707V151.219Z" fill="#5860FF"/>
<path d="M217.756 151.219H211.707V157.268H217.756V151.219Z" fill="#5860FF"/>
<path d="M223.805 151.219H217.756V157.268H223.805V151.219Z" fill="#5860FF"/>
<path d="M229.854 151.219H223.805V157.268H229.854V151.219Z" fill="#5860FF"/>
<path d="M235.902 151.219H229.854V157.268H235.902V151.219Z" fill="#5860FF"/>
<path d="M24.1951 157.268H18.1464V163.317H24.1951V157.268Z" fill="#5860FF"/>
<path d="M36.2927 157.268H30.2439V163.317H36.2927V157.268Z" fill="#5860FF"/>
<path d="M54.439 157.268H48.3903V163.317H54.439V157.268Z" fill="#5860FF"/>
<path d="M66.5366 157.268H60.4878V163.317H66.5366V157.268Z" fill="#5860FF"/>
<path d="M84.6829 157.268H78.6342V163.317H84.6829V157.268Z" fill="#5860FF"/>
<path d="M90.7316 157.268H84.6829V163.317H90.7316V157.268Z" fill="#5860FF"/>
<path d="M102.829 157.268H96.7805V163.317H102.829V157.268Z" fill="#5860FF"/>
<path d="M127.024 157.268H120.976V163.317H127.024V157.268Z" fill="#5860FF"/>
<path d="M139.122 157.268H133.073V163.317H139.122V157.268Z" fill="#5860FF"/>
<path d="M145.171 157.268H139.122V163.317H145.171V157.268Z" fill="#5860FF"/>
<path d="M151.219 157.268H145.171V163.317H151.219V157.268Z" fill="#5860FF"/>
<path d="M157.268 157.268H151.219V163.317H157.268V157.268Z" fill="#5860FF"/>
<path d="M163.317 157.268H157.268V163.317H163.317V157.268Z" fill="#5860FF"/>
<path d="M169.366 157.268H163.317V163.317H169.366V157.268Z" fill="#5860FF"/>
<path d="M175.415 157.268H169.366V163.317H175.415V157.268Z" fill="#5860FF"/>
<path d="M193.561 157.268H187.512V163.317H193.561V157.268Z" fill="#5860FF"/>
<path d="M199.61 157.268H193.561V163.317H199.61V157.268Z" fill="#5860FF"/>
<path d="M211.707 157.268H205.659V163.317H211.707V157.268Z" fill="#5860FF"/>
<path d="M223.805 157.268H217.756V163.317H223.805V157.268Z" fill="#5860FF"/>
<path d="M229.854 157.268H223.805V163.317H229.854V157.268Z" fill="#5860FF"/>
<path d="M36.2927 163.317H30.2439V169.366H36.2927V163.317Z" fill="#5860FF"/>
<path d="M60.4877 163.317H54.439V169.366H60.4877V163.317Z" fill="#5860FF"/>
<path d="M78.6341 163.317H72.5853V169.366H78.6341V163.317Z" fill="#5860FF"/>
<path d="M102.829 163.317H96.7805V169.366H102.829V163.317Z" fill="#5860FF"/>
<path d="M114.927 163.317H108.878V169.366H114.927V163.317Z" fill="#5860FF"/>
<path d="M120.976 163.317H114.927V169.366H120.976V163.317Z" fill="#5860FF"/>
<path d="M127.024 163.317H120.976V169.366H127.024V163.317Z" fill="#5860FF"/>
<path d="M139.122 163.317H133.073V169.366H139.122V163.317Z" fill="#5860FF"/>
<path d="M163.317 163.317H157.268V169.366H163.317V163.317Z" fill="#5860FF"/>
<path d="M175.415 163.317H169.366V169.366H175.415V163.317Z" fill="#5860FF"/>
<path d="M181.463 163.317H175.415V169.366H181.463V163.317Z" fill="#5860FF"/>
<path d="M187.512 163.317H181.463V169.366H187.512V163.317Z" fill="#5860FF"/>
<path d="M199.61 163.317H193.561V169.366H199.61V163.317Z" fill="#5860FF"/>
<path d="M211.707 163.317H205.659V169.366H211.707V163.317Z" fill="#5860FF"/>
<path d="M229.854 163.317H223.805V169.366H229.854V163.317Z" fill="#5860FF"/>
<path d="M235.902 163.317H229.854V169.366H235.902V163.317Z" fill="#5860FF"/>
<path d="M24.1951 169.366H18.1464V175.415H24.1951V169.366Z" fill="#5860FF"/>
<path d="M42.3414 169.366H36.2926V175.415H42.3414V169.366Z" fill="#5860FF"/>
<path d="M48.3902 169.366H42.3414V175.415H48.3902V169.366Z" fill="#5860FF"/>
<path d="M54.439 169.366H48.3903V175.415H54.439V169.366Z" fill="#5860FF"/>
<path d="M60.4877 169.366H54.439V175.415H60.4877V169.366Z" fill="#5860FF"/>
<path d="M66.5366 169.366H60.4878V175.415H66.5366V169.366Z" fill="#5860FF"/>
<path d="M72.5854 169.366H66.5366V175.415H72.5854V169.366Z" fill="#5860FF"/>
<path d="M78.6341 169.366H72.5853V175.415H78.6341V169.366Z" fill="#5860FF"/>
<path d="M102.829 169.366H96.7805V175.415H102.829V169.366Z" fill="#5860FF"/>
<path d="M108.878 169.366H102.829V175.415H108.878V169.366Z" fill="#5860FF"/>
<path d="M114.927 169.366H108.878V175.415H114.927V169.366Z" fill="#5860FF"/>
<path d="M127.024 169.366H120.976V175.415H127.024V169.366Z" fill="#5860FF"/>
<path d="M133.073 169.366H127.024V175.415H133.073V169.366Z" fill="#5860FF"/>
<path d="M139.122 169.366H133.073V175.415H139.122V169.366Z" fill="#5860FF"/>
<path d="M145.171 169.366H139.122V175.415H145.171V169.366Z" fill="#5860FF"/>
<path d="M151.219 169.366H145.171V175.415H151.219V169.366Z" fill="#5860FF"/>
<path d="M169.366 169.366H163.317V175.415H169.366V169.366Z" fill="#5860FF"/>
<path d="M175.415 169.366H169.366V175.415H175.415V169.366Z" fill="#5860FF"/>
<path d="M217.756 169.366H211.707V175.415H217.756V169.366Z" fill="#5860FF"/>
<path d="M229.854 169.366H223.805V175.415H229.854V169.366Z" fill="#5860FF"/>
<path d="M18.1463 175.415H12.0975V181.463H18.1463V175.415Z" fill="#5860FF"/>
<path d="M36.2927 175.415H30.2439V181.463H36.2927V175.415Z" fill="#5860FF"/>
<path d="M42.3414 175.415H36.2926V181.463H42.3414V175.415Z" fill="#5860FF"/>
<path d="M48.3902 175.415H42.3414V181.463H48.3902V175.415Z" fill="#5860FF"/>
<path d="M90.7316 175.415H84.6829V181.463H90.7316V175.415Z" fill="#5860FF"/>
<path d="M96.7805 175.415H90.7317V181.463H96.7805V175.415Z" fill="#5860FF"/>
<path d="M114.927 175.415H108.878V181.463H114.927V175.415Z" fill="#5860FF"/>
<path d="M145.171 175.415H139.122V181.463H145.171V175.415Z" fill="#5860FF"/>
<path d="M157.268 175.415H151.219V181.463H157.268V175.415Z" fill="#5860FF"/>
<path d="M163.317 175.415H157.268V181.463H163.317V175.415Z" fill="#5860FF"/>
<path d="M175.415 175.415H169.366V181.463H175.415V175.415Z" fill="#5860FF"/>
<path d="M187.512 175.415H181.463V181.463H187.512V175.415Z" fill="#5860FF"/>
<path d="M193.561 175.415H187.512V181.463H193.561V175.415Z" fill="#5860FF"/>
<path d="M199.61 175.415H193.561V181.463H199.61V175.415Z" fill="#5860FF"/>
<path d="M205.659 175.415H199.61V181.463H205.659V175.415Z" fill="#5860FF"/>
<path d="M211.707 175.415H205.659V181.463H211.707V175.415Z" fill="#5860FF"/>
<path d="M229.854 175.415H223.805V181.463H229.854V175.415Z" fill="#5860FF"/>
<path d="M30.2438 181.463H24.1951V187.512H30.2438V181.463Z" fill="#5860FF"/>
<path d="M42.3414 181.463H36.2926V187.512H42.3414V181.463Z" fill="#5860FF"/>
<path d="M54.439 181.463H48.3903V187.512H54.439V181.463Z" fill="#5860FF"/>
<path d="M66.5366 181.463H60.4878V187.512H66.5366V181.463Z" fill="#5860FF"/>
<path d="M78.6341 181.463H72.5853V187.512H78.6341V181.463Z" fill="#5860FF"/>
<path d="M90.7316 181.463H84.6829V187.512H90.7316V181.463Z" fill="#5860FF"/>
<path d="M108.878 181.463H102.829V187.512H108.878V181.463Z" fill="#5860FF"/>
<path d="M127.024 181.463H120.976V187.512H127.024V181.463Z" fill="#5860FF"/>
<path d="M139.122 181.463H133.073V187.512H139.122V181.463Z" fill="#5860FF"/>
<path d="M145.171 181.463H139.122V187.512H145.171V181.463Z" fill="#5860FF"/>
<path d="M151.219 181.463H145.171V187.512H151.219V181.463Z" fill="#5860FF"/>
<path d="M157.268 181.463H151.219V187.512H157.268V181.463Z" fill="#5860FF"/>
<path d="M169.366 181.463H163.317V187.512H169.366V181.463Z" fill="#5860FF"/>
<path d="M175.415 181.463H169.366V187.512H175.415V181.463Z" fill="#5860FF"/>
<path d="M187.512 181.463H181.463V187.512H187.512V181.463Z" fill="#5860FF"/>
<path d="M193.561 181.463H187.512V187.512H193.561V181.463Z" fill="#5860FF"/>
<path d="M199.61 181.463H193.561V187.512H199.61V181.463Z" fill="#5860FF"/>
<path d="M205.659 181.463H199.61V187.512H205.659V181.463Z" fill="#5860FF"/>
<path d="M211.707 181.463H205.659V187.512H211.707V181.463Z" fill="#5860FF"/>
<path d="M223.805 181.463H217.756V187.512H223.805V181.463Z" fill="#5860FF"/>
<path d="M229.854 181.463H223.805V187.512H229.854V181.463Z" fill="#5860FF"/>
<path d="M66.5366 187.512H60.4878V193.561H66.5366V187.512Z" fill="#5860FF"/>
<path d="M90.7316 187.512H84.6829V193.561H90.7316V187.512Z" fill="#5860FF"/>
<path d="M96.7805 187.512H90.7317V193.561H96.7805V187.512Z" fill="#5860FF"/>
<path d="M108.878 187.512H102.829V193.561H108.878V187.512Z" fill="#5860FF"/>
<path d="M120.976 187.512H114.927V193.561H120.976V187.512Z" fill="#5860FF"/>
<path d="M127.024 187.512H120.976V193.561H127.024V187.512Z" fill="#5860FF"/>
<path d="M139.122 187.512H133.073V193.561H139.122V187.512Z" fill="#5860FF"/>
<path d="M151.219 187.512H145.171V193.561H151.219V187.512Z" fill="#5860FF"/>
<path d="M157.268 187.512H151.219V193.561H157.268V187.512Z" fill="#5860FF"/>
<path d="M163.317 187.512H157.268V193.561H163.317V187.512Z" fill="#5860FF"/>
<path d="M187.512 187.512H181.463V193.561H187.512V187.512Z" fill="#5860FF"/>
<path d="M211.707 187.512H205.659V193.561H211.707V187.512Z" fill="#5860FF"/>
<path d="M223.805 187.512H217.756V193.561H223.805V187.512Z" fill="#5860FF"/>
<path d="M229.854 187.512H223.805V193.561H229.854V187.512Z" fill="#5860FF"/>
<path d="M235.902 187.512H229.854V193.561H235.902V187.512Z" fill="#5860FF"/>
<path d="M66.5366 193.561H60.4878V199.61H66.5366V193.561Z" fill="#5860FF"/>
<path d="M78.6341 193.561H72.5853V199.61H78.6341V193.561Z" fill="#5860FF"/>
<path d="M84.6829 193.561H78.6342V199.61H84.6829V193.561Z" fill="#5860FF"/>
<path d="M96.7805 193.561H90.7317V199.61H96.7805V193.561Z" fill="#5860FF"/>
<path d="M108.878 193.561H102.829V199.61H108.878V193.561Z" fill="#5860FF"/>
<path d="M114.927 193.561H108.878V199.61H114.927V193.561Z" fill="#5860FF"/>
<path d="M120.976 193.561H114.927V199.61H120.976V193.561Z" fill="#5860FF"/>
<path d="M139.122 193.561H133.073V199.61H139.122V193.561Z" fill="#5860FF"/>
<path d="M145.171 193.561H139.122V199.61H145.171V193.561Z" fill="#5860FF"/>
<path d="M175.415 193.561H169.366V199.61H175.415V193.561Z" fill="#5860FF"/>
<path d="M187.512 193.561H181.463V199.61H187.512V193.561Z" fill="#5860FF"/>
<path d="M199.61 193.561H193.561V199.61H199.61V193.561Z" fill="#5860FF"/>
<path d="M211.707 193.561H205.659V199.61H211.707V193.561Z" fill="#5860FF"/>
<path d="M223.805 193.561H217.756V199.61H223.805V193.561Z" fill="#5860FF"/>
<path d="M235.902 193.561H229.854V199.61H235.902V193.561Z" fill="#5860FF"/>
<path d="M66.5366 199.61H60.4878V205.659H66.5366V199.61Z" fill="#5860FF"/>
<path d="M78.6341 199.61H72.5853V205.659H78.6341V199.61Z" fill="#5860FF"/>
<path d="M90.7316 199.61H84.6829V205.659H90.7316V199.61Z" fill="#5860FF"/>
<path d="M133.073 199.61H127.024V205.659H133.073V199.61Z" fill="#5860FF"/>
<path d="M151.219 199.61H145.171V205.659H151.219V199.61Z" fill="#5860FF"/>
<path d="M187.512 199.61H181.463V205.659H187.512V199.61Z" fill="#5860FF"/>
<path d="M211.707 199.61H205.659V205.659H211.707V199.61Z" fill="#5860FF"/>
<path d="M235.902 199.61H229.854V205.659H235.902V199.61Z" fill="#5860FF"/>
<path d="M72.5854 205.659H66.5366V211.707H72.5854V205.659Z" fill="#5860FF"/>
<path d="M78.6341 205.659H72.5853V211.707H78.6341V205.659Z" fill="#5860FF"/>
<path d="M84.6829 205.659H78.6342V211.707H84.6829V205.659Z" fill="#5860FF"/>
<path d="M96.7805 205.659H90.7317V211.707H96.7805V205.659Z" fill="#5860FF"/>
<path d="M102.829 205.659H96.7805V211.707H102.829V205.659Z" fill="#5860FF"/>
<path d="M127.024 205.659H120.976V211.707H127.024V205.659Z" fill="#5860FF"/>
<path d="M151.219 205.659H145.171V211.707H151.219V205.659Z" fill="#5860FF"/>
<path d="M175.415 205.659H169.366V211.707H175.415V205.659Z" fill="#5860FF"/>
<path d="M187.512 205.659H181.463V211.707H187.512V205.659Z" fill="#5860FF"/>
<path d="M193.561 205.659H187.512V211.707H193.561V205.659Z" fill="#5860FF"/>
<path d="M199.61 205.659H193.561V211.707H199.61V205.659Z" fill="#5860FF"/>
<path d="M205.659 205.659H199.61V211.707H205.659V205.659Z" fill="#5860FF"/>
<path d="M211.707 205.659H205.659V211.707H211.707V205.659Z" fill="#5860FF"/>
<path d="M217.756 205.659H211.707V211.707H217.756V205.659Z" fill="#5860FF"/>
<path d="M66.5366 211.707H60.4878V217.756H66.5366V211.707Z" fill="#5860FF"/>
<path d="M72.5854 211.707H66.5366V217.756H72.5854V211.707Z" fill="#5860FF"/>
<path d="M78.6341 211.707H72.5853V217.756H78.6341V211.707Z" fill="#5860FF"/>
<path d="M96.7805 211.707H90.7317V217.756H96.7805V211.707Z" fill="#5860FF"/>
<path d="M102.829 211.707H96.7805V217.756H102.829V211.707Z" fill="#5860FF"/>
<path d="M108.878 211.707H102.829V217.756H108.878V211.707Z" fill="#5860FF"/>
<path d="M127.024 211.707H120.976V217.756H127.024V211.707Z" fill="#5860FF"/>
<path d="M139.122 211.707H133.073V217.756H139.122V211.707Z" fill="#5860FF"/>
<path d="M145.171 211.707H139.122V217.756H145.171V211.707Z" fill="#5860FF"/>
<path d="M151.219 211.707H145.171V217.756H151.219V211.707Z" fill="#5860FF"/>
<path d="M157.268 211.707H151.219V217.756H157.268V211.707Z" fill="#5860FF"/>
<path d="M169.366 211.707H163.317V217.756H169.366V211.707Z" fill="#5860FF"/>
<path d="M193.561 211.707H187.512V217.756H193.561V211.707Z" fill="#5860FF"/>
<path d="M199.61 211.707H193.561V217.756H199.61V211.707Z" fill="#5860FF"/>
<path d="M211.707 211.707H205.659V217.756H211.707V211.707Z" fill="#5860FF"/>
<path d="M223.805 211.707H217.756V217.756H223.805V211.707Z" fill="#5860FF"/>
<path d="M235.902 211.707H229.854V217.756H235.902V211.707Z" fill="#5860FF"/>
<path d="M66.5366 217.756H60.4878V223.805H66.5366V217.756Z" fill="#5860FF"/>
<path d="M78.6341 217.756H72.5853V223.805H78.6341V217.756Z" fill="#5860FF"/>
<path d="M96.7805 217.756H90.7317V223.805H96.7805V217.756Z" fill="#5860FF"/>
<path d="M114.927 217.756H108.878V223.805H114.927V217.756Z" fill="#5860FF"/>
<path d="M120.976 217.756H114.927V223.805H120.976V217.756Z" fill="#5860FF"/>
<path d="M127.024 217.756H120.976V223.805H127.024V217.756Z" fill="#5860FF"/>
<path d="M133.073 217.756H127.024V223.805H133.073V217.756Z" fill="#5860FF"/>
<path d="M139.122 217.756H133.073V223.805H139.122V217.756Z" fill="#5860FF"/>
<path d="M151.219 217.756H145.171V223.805H151.219V217.756Z" fill="#5860FF"/>
<path d="M157.268 217.756H151.219V223.805H157.268V217.756Z" fill="#5860FF"/>
<path d="M163.317 217.756H157.268V223.805H163.317V217.756Z" fill="#5860FF"/>
<path d="M169.366 217.756H163.317V223.805H169.366V217.756Z" fill="#5860FF"/>
<path d="M187.512 217.756H181.463V223.805H187.512V217.756Z" fill="#5860FF"/>
<path d="M199.61 217.756H193.561V223.805H199.61V217.756Z" fill="#5860FF"/>
<path d="M211.707 217.756H205.659V223.805H211.707V217.756Z" fill="#5860FF"/>
<path d="M217.756 217.756H211.707V223.805H217.756V217.756Z" fill="#5860FF"/>
<path d="M223.805 217.756H217.756V223.805H223.805V217.756Z" fill="#5860FF"/>
<path d="M84.6829 223.805H78.6342V229.854H84.6829V223.805Z" fill="#5860FF"/>
<path d="M90.7316 223.805H84.6829V229.854H90.7316V223.805Z" fill="#5860FF"/>
<path d="M96.7805 223.805H90.7317V229.854H96.7805V223.805Z" fill="#5860FF"/>
<path d="M114.927 223.805H108.878V229.854H114.927V223.805Z" fill="#5860FF"/>
<path d="M139.122 223.805H133.073V229.854H139.122V223.805Z" fill="#5860FF"/>
<path d="M157.268 223.805H151.219V229.854H157.268V223.805Z" fill="#5860FF"/>
<path d="M163.317 223.805H157.268V229.854H163.317V223.805Z" fill="#5860FF"/>
<path d="M169.366 223.805H163.317V229.854H169.366V223.805Z" fill="#5860FF"/>
<path d="M181.463 223.805H175.415V229.854H181.463V223.805Z" fill="#5860FF"/>
<path d="M193.561 223.805H187.512V229.854H193.561V223.805Z" fill="#5860FF"/>
<path d="M205.659 223.805H199.61V229.854H205.659V223.805Z" fill="#5860FF"/>
<path d="M211.707 223.805H205.659V229.854H211.707V223.805Z" fill="#5860FF"/>
<path d="M217.756 223.805H211.707V229.854H217.756V223.805Z" fill="#5860FF"/>
<path d="M223.805 223.805H217.756V229.854H223.805V223.805Z" fill="#5860FF"/>
<path d="M66.5366 229.854H60.4878V235.902H66.5366V229.854Z" fill="#5860FF"/>
<path d="M72.5854 229.854H66.5366V235.902H72.5854V229.854Z" fill="#5860FF"/>
<path d="M78.6341 229.854H72.5853V235.902H78.6341V229.854Z" fill="#5860FF"/>
<path d="M108.878 229.854H102.829V235.902H108.878V229.854Z" fill="#5860FF"/>
<path d="M120.976 229.854H114.927V235.902H120.976V229.854Z" fill="#5860FF"/>
<path d="M133.073 229.854H127.024V235.902H133.073V229.854Z" fill="#5860FF"/>
<path d="M157.268 229.854H151.219V235.902H157.268V229.854Z" fill="#5860FF"/>
<path d="M163.317 229.854H157.268V235.902H163.317V229.854Z" fill="#5860FF"/>
<path d="M169.366 229.854H163.317V235.902H169.366V229.854Z" fill="#5860FF"/>
<path d="M175.415 229.854H169.366V235.902H175.415V229.854Z" fill="#5860FF"/>
<path d="M199.61 229.854H193.561V235.902H199.61V229.854Z" fill="#5860FF"/>
<path d="M211.707 229.854H205.659V235.902H211.707V229.854Z" fill="#5860FF"/>
<path d="M217.756 229.854H211.707V235.902H217.756V229.854Z" fill="#5860FF"/>
<path d="M223.805 229.854H217.756V235.902H223.805V229.854Z" fill="#5860FF"/>
<path d="M229.854 229.854H223.805V235.902H229.854V229.854Z" fill="#5860FF"/>
<path d="M235.902 229.854H229.854V235.902H235.902V229.854Z" fill="#5860FF"/>
<path d="M48.0878 12.0975H18.4488H12.0975V18.4488V48.0878V54.439H18.4488H48.0878H54.439V48.0878V18.4488V12.0975H48.0878ZM48.0878 48.0878H18.4488V18.4488H48.0878V48.0878Z" fill="#5860FF"/>
<path d="M229.551 12.0975H199.912H193.561V18.4488V48.0878V54.439H199.912H229.551H235.902V48.0878V18.4488V12.0975H229.551ZM229.551 48.0878H199.912V18.4488H229.551V48.0878Z" fill="#5860FF"/>
<path d="M48.0878 193.561H18.4488H12.0975V199.912V229.551V235.902H18.4488H48.0878H54.439V229.551V199.912V193.561H48.0878ZM48.0878 229.551H18.4488V199.912H48.0878V229.551Z" fill="#5860FF"/>
<path d="M42.3414 24.1951H24.1951V42.3414H42.3414V24.1951Z" fill="#5860FF"/>
<path d="M223.805 24.1951H205.659V42.3414H223.805V24.1951Z" fill="#5860FF"/>
<path d="M42.3414 205.659H24.1951V223.805H42.3414V205.659Z" fill="#5860FF"/>
</g>
<defs>
<clipPath id="clip0_302_2">
<rect width="248" height="248" fill="white"/>
</clipPath>
</defs>
</svg>
