<svg width="248" height="248" viewBox="0 0 248 248" fill="none" xmlns="http://www.w3.org/2000/svg">
<g clip-path="url(#clip0_887_2639)">
<path d="M248 0H0V248H248V0Z" fill="white"/>
<path d="M73.7297 13.4054H67.027V20.1081H73.7297V13.4054Z" fill="#5860FF"/>
<path d="M80.4324 13.4054H73.7297V20.1081H80.4324V13.4054Z" fill="#5860FF"/>
<path d="M107.243 13.4054H100.541V20.1081H107.243V13.4054Z" fill="#5860FF"/>
<path d="M140.757 13.4054H134.054V20.1081H140.757V13.4054Z" fill="#5860FF"/>
<path d="M147.459 13.4054H140.757V20.1081H147.459V13.4054Z" fill="#5860FF"/>
<path d="M154.162 13.4054H147.459V20.1081H154.162V13.4054Z" fill="#5860FF"/>
<path d="M160.865 13.4054H154.162V20.1081H160.865V13.4054Z" fill="#5860FF"/>
<path d="M174.27 13.4054H167.568V20.1081H174.27V13.4054Z" fill="#5860FF"/>
<path d="M73.7297 20.1082H67.027V26.8109H73.7297V20.1082Z" fill="#5860FF"/>
<path d="M80.4324 20.1082H73.7297V26.8109H80.4324V20.1082Z" fill="#5860FF"/>
<path d="M87.1351 20.1082H80.4324V26.8109H87.1351V20.1082Z" fill="#5860FF"/>
<path d="M93.8378 20.1082H87.1351V26.8109H93.8378V20.1082Z" fill="#5860FF"/>
<path d="M100.541 20.1082H93.8379V26.8109H100.541V20.1082Z" fill="#5860FF"/>
<path d="M107.243 20.1082H100.541V26.8109H107.243V20.1082Z" fill="#5860FF"/>
<path d="M134.054 20.1082H127.351V26.8109H134.054V20.1082Z" fill="#5860FF"/>
<path d="M160.865 20.1082H154.162V26.8109H160.865V20.1082Z" fill="#5860FF"/>
<path d="M167.568 20.1082H160.865V26.8109H167.568V20.1082Z" fill="#5860FF"/>
<path d="M174.27 20.1082H167.568V26.8109H174.27V20.1082Z" fill="#5860FF"/>
<path d="M87.1351 26.8108H80.4324V33.5135H87.1351V26.8108Z" fill="#5860FF"/>
<path d="M127.351 26.8108H120.649V33.5135H127.351V26.8108Z" fill="#5860FF"/>
<path d="M154.162 26.8108H147.459V33.5135H154.162V26.8108Z" fill="#5860FF"/>
<path d="M167.568 26.8108H160.865V33.5135H167.568V26.8108Z" fill="#5860FF"/>
<path d="M174.27 26.8108H167.568V33.5135H174.27V26.8108Z" fill="#5860FF"/>
<path d="M180.973 26.8108H174.27V33.5135H180.973V26.8108Z" fill="#5860FF"/>
<path d="M73.7297 33.5135H67.027V40.2163H73.7297V33.5135Z" fill="#5860FF"/>
<path d="M100.541 33.5135H93.8379V40.2163H100.541V33.5135Z" fill="#5860FF"/>
<path d="M113.946 33.5135H107.243V40.2163H113.946V33.5135Z" fill="#5860FF"/>
<path d="M120.649 33.5135H113.946V40.2163H120.649V33.5135Z" fill="#5860FF"/>
<path d="M127.351 33.5135H120.649V40.2163H127.351V33.5135Z" fill="#5860FF"/>
<path d="M134.054 33.5135H127.351V40.2163H134.054V33.5135Z" fill="#5860FF"/>
<path d="M140.757 33.5135H134.054V40.2163H140.757V33.5135Z" fill="#5860FF"/>
<path d="M147.459 33.5135H140.757V40.2163H147.459V33.5135Z" fill="#5860FF"/>
<path d="M154.162 33.5135H147.459V40.2163H154.162V33.5135Z" fill="#5860FF"/>
<path d="M174.27 33.5135H167.568V40.2163H174.27V33.5135Z" fill="#5860FF"/>
<path d="M87.1351 40.2162H80.4324V46.9189H87.1351V40.2162Z" fill="#5860FF"/>
<path d="M93.8378 40.2162H87.1351V46.9189H93.8378V40.2162Z" fill="#5860FF"/>
<path d="M107.243 40.2162H100.541V46.9189H107.243V40.2162Z" fill="#5860FF"/>
<path d="M113.946 40.2162H107.243V46.9189H113.946V40.2162Z" fill="#5860FF"/>
<path d="M140.757 40.2162H134.054V46.9189H140.757V40.2162Z" fill="#5860FF"/>
<path d="M147.459 40.2162H140.757V46.9189H147.459V40.2162Z" fill="#5860FF"/>
<path d="M154.162 40.2162H147.459V46.9189H154.162V40.2162Z" fill="#5860FF"/>
<path d="M167.568 40.2162H160.865V46.9189H167.568V40.2162Z" fill="#5860FF"/>
<path d="M80.4324 46.9189H73.7297V53.6216H80.4324V46.9189Z" fill="#5860FF"/>
<path d="M93.8378 46.9189H87.1351V53.6216H93.8378V46.9189Z" fill="#5860FF"/>
<path d="M113.946 46.9189H107.243V53.6216H113.946V46.9189Z" fill="#5860FF"/>
<path d="M140.757 46.9189H134.054V53.6216H140.757V46.9189Z" fill="#5860FF"/>
<path d="M147.459 46.9189H140.757V53.6216H147.459V46.9189Z" fill="#5860FF"/>
<path d="M154.162 46.9189H147.459V53.6216H154.162V46.9189Z" fill="#5860FF"/>
<path d="M167.568 46.9189H160.865V53.6216H167.568V46.9189Z" fill="#5860FF"/>
<path d="M73.7297 53.6216H67.027V60.3243H73.7297V53.6216Z" fill="#5860FF"/>
<path d="M87.1351 53.6216H80.4324V60.3243H87.1351V53.6216Z" fill="#5860FF"/>
<path d="M100.541 53.6216H93.8379V60.3243H100.541V53.6216Z" fill="#5860FF"/>
<path d="M113.946 53.6216H107.243V60.3243H113.946V53.6216Z" fill="#5860FF"/>
<path d="M127.351 53.6216H120.649V60.3243H127.351V53.6216Z" fill="#5860FF"/>
<path d="M140.757 53.6216H134.054V60.3243H140.757V53.6216Z" fill="#5860FF"/>
<path d="M154.162 53.6216H147.459V60.3243H154.162V53.6216Z" fill="#5860FF"/>
<path d="M167.568 53.6216H160.865V60.3243H167.568V53.6216Z" fill="#5860FF"/>
<path d="M180.973 53.6216H174.27V60.3243H180.973V53.6216Z" fill="#5860FF"/>
<path d="M73.7297 60.3243H67.027V67.027H73.7297V60.3243Z" fill="#5860FF"/>
<path d="M93.8378 60.3243H87.1351V67.027H93.8378V60.3243Z" fill="#5860FF"/>
<path d="M100.541 60.3243H93.8379V67.027H100.541V60.3243Z" fill="#5860FF"/>
<path d="M134.054 60.3243H127.351V67.027H134.054V60.3243Z" fill="#5860FF"/>
<path d="M140.757 60.3243H134.054V67.027H140.757V60.3243Z" fill="#5860FF"/>
<path d="M154.162 60.3243H147.459V67.027H154.162V60.3243Z" fill="#5860FF"/>
<path d="M167.568 60.3243H160.865V67.027H167.568V60.3243Z" fill="#5860FF"/>
<path d="M174.27 60.3243H167.568V67.027H174.27V60.3243Z" fill="#5860FF"/>
<path d="M180.973 60.3243H174.27V67.027H180.973V60.3243Z" fill="#5860FF"/>
<path d="M20.1081 67.027H13.4054V73.7297H20.1081V67.027Z" fill="#5860FF"/>
<path d="M33.5135 67.027H26.8108V73.7297H33.5135V67.027Z" fill="#5860FF"/>
<path d="M40.2163 67.027H33.5135V73.7297H40.2163V67.027Z" fill="#5860FF"/>
<path d="M53.6216 67.027H46.9189V73.7297H53.6216V67.027Z" fill="#5860FF"/>
<path d="M60.3243 67.027H53.6216V73.7297H60.3243V67.027Z" fill="#5860FF"/>
<path d="M67.027 67.027H60.3243V73.7297H67.027V67.027Z" fill="#5860FF"/>
<path d="M87.1351 67.027H80.4324V73.7297H87.1351V67.027Z" fill="#5860FF"/>
<path d="M100.541 67.027H93.8379V73.7297H100.541V67.027Z" fill="#5860FF"/>
<path d="M113.946 67.027H107.243V73.7297H113.946V67.027Z" fill="#5860FF"/>
<path d="M134.054 67.027H127.351V73.7297H134.054V67.027Z" fill="#5860FF"/>
<path d="M147.459 67.027H140.757V73.7297H147.459V67.027Z" fill="#5860FF"/>
<path d="M160.865 67.027H154.162V73.7297H160.865V67.027Z" fill="#5860FF"/>
<path d="M194.378 67.027H187.676V73.7297H194.378V67.027Z" fill="#5860FF"/>
<path d="M214.487 67.027H207.784V73.7297H214.487V67.027Z" fill="#5860FF"/>
<path d="M227.892 67.027H221.189V73.7297H227.892V67.027Z" fill="#5860FF"/>
<path d="M234.595 67.027H227.892V73.7297H234.595V67.027Z" fill="#5860FF"/>
<path d="M20.1081 73.7297H13.4054V80.4324H20.1081V73.7297Z" fill="#5860FF"/>
<path d="M26.8109 73.7297H20.1082V80.4324H26.8109V73.7297Z" fill="#5860FF"/>
<path d="M46.9189 73.7297H40.2162V80.4324H46.9189V73.7297Z" fill="#5860FF"/>
<path d="M67.027 73.7297H60.3243V80.4324H67.027V73.7297Z" fill="#5860FF"/>
<path d="M80.4324 73.7297H73.7297V80.4324H80.4324V73.7297Z" fill="#5860FF"/>
<path d="M93.8378 73.7297H87.1351V80.4324H93.8378V73.7297Z" fill="#5860FF"/>
<path d="M100.541 73.7297H93.8379V80.4324H100.541V73.7297Z" fill="#5860FF"/>
<path d="M127.351 73.7297H120.649V80.4324H127.351V73.7297Z" fill="#5860FF"/>
<path d="M140.757 73.7297H134.054V80.4324H140.757V73.7297Z" fill="#5860FF"/>
<path d="M147.459 73.7297H140.757V80.4324H147.459V73.7297Z" fill="#5860FF"/>
<path d="M154.162 73.7297H147.459V80.4324H154.162V73.7297Z" fill="#5860FF"/>
<path d="M160.865 73.7297H154.162V80.4324H160.865V73.7297Z" fill="#5860FF"/>
<path d="M167.568 73.7297H160.865V80.4324H167.568V73.7297Z" fill="#5860FF"/>
<path d="M174.27 73.7297H167.568V80.4324H174.27V73.7297Z" fill="#5860FF"/>
<path d="M180.973 73.7297H174.27V80.4324H180.973V73.7297Z" fill="#5860FF"/>
<path d="M194.378 73.7297H187.676V80.4324H194.378V73.7297Z" fill="#5860FF"/>
<path d="M201.081 73.7297H194.378V80.4324H201.081V73.7297Z" fill="#5860FF"/>
<path d="M214.487 73.7297H207.784V80.4324H214.487V73.7297Z" fill="#5860FF"/>
<path d="M221.189 73.7297H214.486V80.4324H221.189V73.7297Z" fill="#5860FF"/>
<path d="M227.892 73.7297H221.189V80.4324H227.892V73.7297Z" fill="#5860FF"/>
<path d="M234.595 73.7297H227.892V80.4324H234.595V73.7297Z" fill="#5860FF"/>
<path d="M26.8109 80.4324H20.1082V87.1351H26.8109V80.4324Z" fill="#5860FF"/>
<path d="M33.5135 80.4324H26.8108V87.1351H33.5135V80.4324Z" fill="#5860FF"/>
<path d="M60.3243 80.4324H53.6216V87.1351H60.3243V80.4324Z" fill="#5860FF"/>
<path d="M67.027 80.4324H60.3243V87.1351H67.027V80.4324Z" fill="#5860FF"/>
<path d="M80.4324 80.4324H73.7297V87.1351H80.4324V80.4324Z" fill="#5860FF"/>
<path d="M93.8378 80.4324H87.1351V87.1351H93.8378V80.4324Z" fill="#5860FF"/>
<path d="M100.541 80.4324H93.8379V87.1351H100.541V80.4324Z" fill="#5860FF"/>
<path d="M113.946 80.4324H107.243V87.1351H113.946V80.4324Z" fill="#5860FF"/>
<path d="M134.054 80.4324H127.351V87.1351H134.054V80.4324Z" fill="#5860FF"/>
<path d="M140.757 80.4324H134.054V87.1351H140.757V80.4324Z" fill="#5860FF"/>
<path d="M167.568 80.4324H160.865V87.1351H167.568V80.4324Z" fill="#5860FF"/>
<path d="M174.27 80.4324H167.568V87.1351H174.27V80.4324Z" fill="#5860FF"/>
<path d="M180.973 80.4324H174.27V87.1351H180.973V80.4324Z" fill="#5860FF"/>
<path d="M187.676 80.4324H180.973V87.1351H187.676V80.4324Z" fill="#5860FF"/>
<path d="M201.081 80.4324H194.378V87.1351H201.081V80.4324Z" fill="#5860FF"/>
<path d="M207.784 80.4324H201.081V87.1351H207.784V80.4324Z" fill="#5860FF"/>
<path d="M214.487 80.4324H207.784V87.1351H214.487V80.4324Z" fill="#5860FF"/>
<path d="M227.892 80.4324H221.189V87.1351H227.892V80.4324Z" fill="#5860FF"/>
<path d="M234.595 80.4324H227.892V87.1351H234.595V80.4324Z" fill="#5860FF"/>
<path d="M26.8109 87.1351H20.1082V93.8378H26.8109V87.1351Z" fill="#5860FF"/>
<path d="M33.5135 87.1351H26.8108V93.8378H33.5135V87.1351Z" fill="#5860FF"/>
<path d="M40.2163 87.1351H33.5135V93.8378H40.2163V87.1351Z" fill="#5860FF"/>
<path d="M73.7297 87.1351H67.027V93.8378H73.7297V87.1351Z" fill="#5860FF"/>
<path d="M93.8378 87.1351H87.1351V93.8378H93.8378V87.1351Z" fill="#5860FF"/>
<path d="M100.541 87.1351H93.8379V93.8378H100.541V87.1351Z" fill="#5860FF"/>
<path d="M107.243 87.1351H100.541V93.8378H107.243V87.1351Z" fill="#5860FF"/>
<path d="M113.946 87.1351H107.243V93.8378H113.946V87.1351Z" fill="#5860FF"/>
<path d="M127.351 87.1351H120.649V93.8378H127.351V87.1351Z" fill="#5860FF"/>
<path d="M140.757 87.1351H134.054V93.8378H140.757V87.1351Z" fill="#5860FF"/>
<path d="M167.568 87.1351H160.865V93.8378H167.568V87.1351Z" fill="#5860FF"/>
<path d="M174.27 87.1351H167.568V93.8378H174.27V87.1351Z" fill="#5860FF"/>
<path d="M187.676 87.1351H180.973V93.8378H187.676V87.1351Z" fill="#5860FF"/>
<path d="M201.081 87.1351H194.378V93.8378H201.081V87.1351Z" fill="#5860FF"/>
<path d="M214.487 87.1351H207.784V93.8378H214.487V87.1351Z" fill="#5860FF"/>
<path d="M234.595 87.1351H227.892V93.8378H234.595V87.1351Z" fill="#5860FF"/>
<path d="M20.1081 93.8379H13.4054V100.541H20.1081V93.8379Z" fill="#5860FF"/>
<path d="M26.8109 93.8379H20.1082V100.541H26.8109V93.8379Z" fill="#5860FF"/>
<path d="M40.2163 93.8379H33.5135V100.541H40.2163V93.8379Z" fill="#5860FF"/>
<path d="M53.6216 93.8379H46.9189V100.541H53.6216V93.8379Z" fill="#5860FF"/>
<path d="M60.3243 93.8379H53.6216V100.541H60.3243V93.8379Z" fill="#5860FF"/>
<path d="M73.7297 93.8379H67.027V100.541H73.7297V93.8379Z" fill="#5860FF"/>
<path d="M120.649 93.8379H113.946V100.541H120.649V93.8379Z" fill="#5860FF"/>
<path d="M140.757 93.8379H134.054V100.541H140.757V93.8379Z" fill="#5860FF"/>
<path d="M154.162 93.8379H147.459V100.541H154.162V93.8379Z" fill="#5860FF"/>
<path d="M180.973 93.8379H174.27V100.541H180.973V93.8379Z" fill="#5860FF"/>
<path d="M187.676 93.8379H180.973V100.541H187.676V93.8379Z" fill="#5860FF"/>
<path d="M201.081 93.8379H194.378V100.541H201.081V93.8379Z" fill="#5860FF"/>
<path d="M207.784 93.8379H201.081V100.541H207.784V93.8379Z" fill="#5860FF"/>
<path d="M214.487 93.8379H207.784V100.541H214.487V93.8379Z" fill="#5860FF"/>
<path d="M33.5135 100.541H26.8108V107.243H33.5135V100.541Z" fill="#5860FF"/>
<path d="M40.2163 100.541H33.5135V107.243H40.2163V100.541Z" fill="#5860FF"/>
<path d="M53.6216 100.541H46.9189V107.243H53.6216V100.541Z" fill="#5860FF"/>
<path d="M80.4324 100.541H73.7297V107.243H80.4324V100.541Z" fill="#5860FF"/>
<path d="M87.1351 100.541H80.4324V107.243H87.1351V100.541Z" fill="#5860FF"/>
<path d="M93.8378 100.541H87.1351V107.243H93.8378V100.541Z" fill="#5860FF"/>
<path d="M127.351 100.541H120.649V107.243H127.351V100.541Z" fill="#5860FF"/>
<path d="M147.459 100.541H140.757V107.243H147.459V100.541Z" fill="#5860FF"/>
<path d="M154.162 100.541H147.459V107.243H154.162V100.541Z" fill="#5860FF"/>
<path d="M167.568 100.541H160.865V107.243H167.568V100.541Z" fill="#5860FF"/>
<path d="M180.973 100.541H174.27V107.243H180.973V100.541Z" fill="#5860FF"/>
<path d="M201.081 100.541H194.378V107.243H201.081V100.541Z" fill="#5860FF"/>
<path d="M227.892 100.541H221.189V107.243H227.892V100.541Z" fill="#5860FF"/>
<path d="M40.2163 107.243H33.5135V113.946H40.2163V107.243Z" fill="#5860FF"/>
<path d="M60.3243 107.243H53.6216V113.946H60.3243V107.243Z" fill="#5860FF"/>
<path d="M73.7297 107.243H67.027V113.946H73.7297V107.243Z" fill="#5860FF"/>
<path d="M93.8378 107.243H87.1351V113.946H93.8378V107.243Z" fill="#5860FF"/>
<path d="M100.541 107.243H93.8379V113.946H100.541V107.243Z" fill="#5860FF"/>
<path d="M107.243 107.243H100.541V113.946H107.243V107.243Z" fill="#5860FF"/>
<path d="M120.649 107.243H113.946V113.946H120.649V107.243Z" fill="#5860FF"/>
<path d="M127.351 107.243H120.649V113.946H127.351V107.243Z" fill="#5860FF"/>
<path d="M134.054 107.243H127.351V113.946H134.054V107.243Z" fill="#5860FF"/>
<path d="M140.757 107.243H134.054V113.946H140.757V107.243Z" fill="#5860FF"/>
<path d="M147.459 107.243H140.757V113.946H147.459V107.243Z" fill="#5860FF"/>
<path d="M167.568 107.243H160.865V113.946H167.568V107.243Z" fill="#5860FF"/>
<path d="M180.973 107.243H174.27V113.946H180.973V107.243Z" fill="#5860FF"/>
<path d="M194.378 107.243H187.676V113.946H194.378V107.243Z" fill="#5860FF"/>
<path d="M207.784 107.243H201.081V113.946H207.784V107.243Z" fill="#5860FF"/>
<path d="M20.1081 113.946H13.4054V120.649H20.1081V113.946Z" fill="#5860FF"/>
<path d="M46.9189 113.946H40.2162V120.649H46.9189V113.946Z" fill="#5860FF"/>
<path d="M67.027 113.946H60.3243V120.649H67.027V113.946Z" fill="#5860FF"/>
<path d="M73.7297 113.946H67.027V120.649H73.7297V113.946Z" fill="#5860FF"/>
<path d="M80.4324 113.946H73.7297V120.649H80.4324V113.946Z" fill="#5860FF"/>
<path d="M87.1351 113.946H80.4324V120.649H87.1351V113.946Z" fill="#5860FF"/>
<path d="M100.541 113.946H93.8379V120.649H100.541V113.946Z" fill="#5860FF"/>
<path d="M113.946 113.946H107.243V120.649H113.946V113.946Z" fill="#5860FF"/>
<path d="M127.351 113.946H120.649V120.649H127.351V113.946Z" fill="#5860FF"/>
<path d="M147.459 113.946H140.757V120.649H147.459V113.946Z" fill="#5860FF"/>
<path d="M160.865 113.946H154.162V120.649H160.865V113.946Z" fill="#5860FF"/>
<path d="M180.973 113.946H174.27V120.649H180.973V113.946Z" fill="#5860FF"/>
<path d="M187.676 113.946H180.973V120.649H187.676V113.946Z" fill="#5860FF"/>
<path d="M194.378 113.946H187.676V120.649H194.378V113.946Z" fill="#5860FF"/>
<path d="M207.784 113.946H201.081V120.649H207.784V113.946Z" fill="#5860FF"/>
<path d="M221.189 113.946H214.486V120.649H221.189V113.946Z" fill="#5860FF"/>
<path d="M33.5135 120.649H26.8108V127.351H33.5135V120.649Z" fill="#5860FF"/>
<path d="M40.2163 120.649H33.5135V127.351H40.2163V120.649Z" fill="#5860FF"/>
<path d="M60.3243 120.649H53.6216V127.351H60.3243V120.649Z" fill="#5860FF"/>
<path d="M80.4324 120.649H73.7297V127.351H80.4324V120.649Z" fill="#5860FF"/>
<path d="M87.1351 120.649H80.4324V127.351H87.1351V120.649Z" fill="#5860FF"/>
<path d="M93.8378 120.649H87.1351V127.351H93.8378V120.649Z" fill="#5860FF"/>
<path d="M100.541 120.649H93.8379V127.351H100.541V120.649Z" fill="#5860FF"/>
<path d="M107.243 120.649H100.541V127.351H107.243V120.649Z" fill="#5860FF"/>
<path d="M120.649 120.649H113.946V127.351H120.649V120.649Z" fill="#5860FF"/>
<path d="M127.351 120.649H120.649V127.351H127.351V120.649Z" fill="#5860FF"/>
<path d="M140.757 120.649H134.054V127.351H140.757V120.649Z" fill="#5860FF"/>
<path d="M154.162 120.649H147.459V127.351H154.162V120.649Z" fill="#5860FF"/>
<path d="M160.865 120.649H154.162V127.351H160.865V120.649Z" fill="#5860FF"/>
<path d="M167.568 120.649H160.865V127.351H167.568V120.649Z" fill="#5860FF"/>
<path d="M180.973 120.649H174.27V127.351H180.973V120.649Z" fill="#5860FF"/>
<path d="M187.676 120.649H180.973V127.351H187.676V120.649Z" fill="#5860FF"/>
<path d="M194.378 120.649H187.676V127.351H194.378V120.649Z" fill="#5860FF"/>
<path d="M207.784 120.649H201.081V127.351H207.784V120.649Z" fill="#5860FF"/>
<path d="M214.487 120.649H207.784V127.351H214.487V120.649Z" fill="#5860FF"/>
<path d="M221.189 120.649H214.486V127.351H221.189V120.649Z" fill="#5860FF"/>
<path d="M26.8109 127.351H20.1082V134.054H26.8109V127.351Z" fill="#5860FF"/>
<path d="M40.2163 127.351H33.5135V134.054H40.2163V127.351Z" fill="#5860FF"/>
<path d="M73.7297 127.351H67.027V134.054H73.7297V127.351Z" fill="#5860FF"/>
<path d="M100.541 127.351H93.8379V134.054H100.541V127.351Z" fill="#5860FF"/>
<path d="M107.243 127.351H100.541V134.054H107.243V127.351Z" fill="#5860FF"/>
<path d="M120.649 127.351H113.946V134.054H120.649V127.351Z" fill="#5860FF"/>
<path d="M134.054 127.351H127.351V134.054H134.054V127.351Z" fill="#5860FF"/>
<path d="M154.162 127.351H147.459V134.054H154.162V127.351Z" fill="#5860FF"/>
<path d="M174.27 127.351H167.568V134.054H174.27V127.351Z" fill="#5860FF"/>
<path d="M180.973 127.351H174.27V134.054H180.973V127.351Z" fill="#5860FF"/>
<path d="M187.676 127.351H180.973V134.054H187.676V127.351Z" fill="#5860FF"/>
<path d="M194.378 127.351H187.676V134.054H194.378V127.351Z" fill="#5860FF"/>
<path d="M207.784 127.351H201.081V134.054H207.784V127.351Z" fill="#5860FF"/>
<path d="M214.487 127.351H207.784V134.054H214.487V127.351Z" fill="#5860FF"/>
<path d="M234.595 127.351H227.892V134.054H234.595V127.351Z" fill="#5860FF"/>
<path d="M20.1081 134.054H13.4054V140.757H20.1081V134.054Z" fill="#5860FF"/>
<path d="M26.8109 134.054H20.1082V140.757H26.8109V134.054Z" fill="#5860FF"/>
<path d="M33.5135 134.054H26.8108V140.757H33.5135V134.054Z" fill="#5860FF"/>
<path d="M53.6216 134.054H46.9189V140.757H53.6216V134.054Z" fill="#5860FF"/>
<path d="M60.3243 134.054H53.6216V140.757H60.3243V134.054Z" fill="#5860FF"/>
<path d="M93.8378 134.054H87.1351V140.757H93.8378V134.054Z" fill="#5860FF"/>
<path d="M107.243 134.054H100.541V140.757H107.243V134.054Z" fill="#5860FF"/>
<path d="M120.649 134.054H113.946V140.757H120.649V134.054Z" fill="#5860FF"/>
<path d="M127.351 134.054H120.649V140.757H127.351V134.054Z" fill="#5860FF"/>
<path d="M134.054 134.054H127.351V140.757H134.054V134.054Z" fill="#5860FF"/>
<path d="M160.865 134.054H154.162V140.757H160.865V134.054Z" fill="#5860FF"/>
<path d="M167.568 134.054H160.865V140.757H167.568V134.054Z" fill="#5860FF"/>
<path d="M180.973 134.054H174.27V140.757H180.973V134.054Z" fill="#5860FF"/>
<path d="M187.676 134.054H180.973V140.757H187.676V134.054Z" fill="#5860FF"/>
<path d="M201.081 134.054H194.378V140.757H201.081V134.054Z" fill="#5860FF"/>
<path d="M207.784 134.054H201.081V140.757H207.784V134.054Z" fill="#5860FF"/>
<path d="M221.189 134.054H214.486V140.757H221.189V134.054Z" fill="#5860FF"/>
<path d="M227.892 134.054H221.189V140.757H227.892V134.054Z" fill="#5860FF"/>
<path d="M26.8109 140.757H20.1082V147.459H26.8109V140.757Z" fill="#5860FF"/>
<path d="M40.2163 140.757H33.5135V147.459H40.2163V140.757Z" fill="#5860FF"/>
<path d="M53.6216 140.757H46.9189V147.459H53.6216V140.757Z" fill="#5860FF"/>
<path d="M73.7297 140.757H67.027V147.459H73.7297V140.757Z" fill="#5860FF"/>
<path d="M80.4324 140.757H73.7297V147.459H80.4324V140.757Z" fill="#5860FF"/>
<path d="M147.459 140.757H140.757V147.459H147.459V140.757Z" fill="#5860FF"/>
<path d="M167.568 140.757H160.865V147.459H167.568V140.757Z" fill="#5860FF"/>
<path d="M174.27 140.757H167.568V147.459H174.27V140.757Z" fill="#5860FF"/>
<path d="M187.676 140.757H180.973V147.459H187.676V140.757Z" fill="#5860FF"/>
<path d="M194.378 140.757H187.676V147.459H194.378V140.757Z" fill="#5860FF"/>
<path d="M207.784 140.757H201.081V147.459H207.784V140.757Z" fill="#5860FF"/>
<path d="M227.892 140.757H221.189V147.459H227.892V140.757Z" fill="#5860FF"/>
<path d="M234.595 140.757H227.892V147.459H234.595V140.757Z" fill="#5860FF"/>
<path d="M33.5135 147.459H26.8108V154.162H33.5135V147.459Z" fill="#5860FF"/>
<path d="M40.2163 147.459H33.5135V154.162H40.2163V147.459Z" fill="#5860FF"/>
<path d="M53.6216 147.459H46.9189V154.162H53.6216V147.459Z" fill="#5860FF"/>
<path d="M60.3243 147.459H53.6216V154.162H60.3243V147.459Z" fill="#5860FF"/>
<path d="M73.7297 147.459H67.027V154.162H73.7297V147.459Z" fill="#5860FF"/>
<path d="M107.243 147.459H100.541V154.162H107.243V147.459Z" fill="#5860FF"/>
<path d="M113.946 147.459H107.243V154.162H113.946V147.459Z" fill="#5860FF"/>
<path d="M140.757 147.459H134.054V154.162H140.757V147.459Z" fill="#5860FF"/>
<path d="M154.162 147.459H147.459V154.162H154.162V147.459Z" fill="#5860FF"/>
<path d="M160.865 147.459H154.162V154.162H160.865V147.459Z" fill="#5860FF"/>
<path d="M167.568 147.459H160.865V154.162H167.568V147.459Z" fill="#5860FF"/>
<path d="M214.487 147.459H207.784V154.162H214.487V147.459Z" fill="#5860FF"/>
<path d="M221.189 147.459H214.486V154.162H221.189V147.459Z" fill="#5860FF"/>
<path d="M20.1081 154.162H13.4054V160.865H20.1081V154.162Z" fill="#5860FF"/>
<path d="M26.8109 154.162H20.1082V160.865H26.8109V154.162Z" fill="#5860FF"/>
<path d="M33.5135 154.162H26.8108V160.865H33.5135V154.162Z" fill="#5860FF"/>
<path d="M67.027 154.162H60.3243V160.865H67.027V154.162Z" fill="#5860FF"/>
<path d="M87.1351 154.162H80.4324V160.865H87.1351V154.162Z" fill="#5860FF"/>
<path d="M100.541 154.162H93.8379V160.865H100.541V154.162Z" fill="#5860FF"/>
<path d="M107.243 154.162H100.541V160.865H107.243V154.162Z" fill="#5860FF"/>
<path d="M120.649 154.162H113.946V160.865H120.649V154.162Z" fill="#5860FF"/>
<path d="M140.757 154.162H134.054V160.865H140.757V154.162Z" fill="#5860FF"/>
<path d="M147.459 154.162H140.757V160.865H147.459V154.162Z" fill="#5860FF"/>
<path d="M160.865 154.162H154.162V160.865H160.865V154.162Z" fill="#5860FF"/>
<path d="M167.568 154.162H160.865V160.865H167.568V154.162Z" fill="#5860FF"/>
<path d="M174.27 154.162H167.568V160.865H174.27V154.162Z" fill="#5860FF"/>
<path d="M187.676 154.162H180.973V160.865H187.676V154.162Z" fill="#5860FF"/>
<path d="M194.378 154.162H187.676V160.865H194.378V154.162Z" fill="#5860FF"/>
<path d="M214.487 154.162H207.784V160.865H214.487V154.162Z" fill="#5860FF"/>
<path d="M234.595 154.162H227.892V160.865H234.595V154.162Z" fill="#5860FF"/>
<path d="M40.2163 160.865H33.5135V167.568H40.2163V160.865Z" fill="#5860FF"/>
<path d="M53.6216 160.865H46.9189V167.568H53.6216V160.865Z" fill="#5860FF"/>
<path d="M60.3243 160.865H53.6216V167.568H60.3243V160.865Z" fill="#5860FF"/>
<path d="M73.7297 160.865H67.027V167.568H73.7297V160.865Z" fill="#5860FF"/>
<path d="M80.4324 160.865H73.7297V167.568H80.4324V160.865Z" fill="#5860FF"/>
<path d="M87.1351 160.865H80.4324V167.568H87.1351V160.865Z" fill="#5860FF"/>
<path d="M93.8378 160.865H87.1351V167.568H93.8378V160.865Z" fill="#5860FF"/>
<path d="M107.243 160.865H100.541V167.568H107.243V160.865Z" fill="#5860FF"/>
<path d="M127.351 160.865H120.649V167.568H127.351V160.865Z" fill="#5860FF"/>
<path d="M140.757 160.865H134.054V167.568H140.757V160.865Z" fill="#5860FF"/>
<path d="M174.27 160.865H167.568V167.568H174.27V160.865Z" fill="#5860FF"/>
<path d="M180.973 160.865H174.27V167.568H180.973V160.865Z" fill="#5860FF"/>
<path d="M194.378 160.865H187.676V167.568H194.378V160.865Z" fill="#5860FF"/>
<path d="M201.081 160.865H194.378V167.568H201.081V160.865Z" fill="#5860FF"/>
<path d="M227.892 160.865H221.189V167.568H227.892V160.865Z" fill="#5860FF"/>
<path d="M234.595 160.865H227.892V167.568H234.595V160.865Z" fill="#5860FF"/>
<path d="M26.8109 167.568H20.1082V174.27H26.8109V167.568Z" fill="#5860FF"/>
<path d="M40.2163 167.568H33.5135V174.27H40.2163V167.568Z" fill="#5860FF"/>
<path d="M53.6216 167.568H46.9189V174.27H53.6216V167.568Z" fill="#5860FF"/>
<path d="M73.7297 167.568H67.027V174.27H73.7297V167.568Z" fill="#5860FF"/>
<path d="M100.541 167.568H93.8379V174.27H100.541V167.568Z" fill="#5860FF"/>
<path d="M113.946 167.568H107.243V174.27H113.946V167.568Z" fill="#5860FF"/>
<path d="M127.351 167.568H120.649V174.27H127.351V167.568Z" fill="#5860FF"/>
<path d="M140.757 167.568H134.054V174.27H140.757V167.568Z" fill="#5860FF"/>
<path d="M147.459 167.568H140.757V174.27H147.459V167.568Z" fill="#5860FF"/>
<path d="M167.568 167.568H160.865V174.27H167.568V167.568Z" fill="#5860FF"/>
<path d="M174.27 167.568H167.568V174.27H174.27V167.568Z" fill="#5860FF"/>
<path d="M180.973 167.568H174.27V174.27H180.973V167.568Z" fill="#5860FF"/>
<path d="M207.784 167.568H201.081V174.27H207.784V167.568Z" fill="#5860FF"/>
<path d="M214.487 167.568H207.784V174.27H214.487V167.568Z" fill="#5860FF"/>
<path d="M227.892 167.568H221.189V174.27H227.892V167.568Z" fill="#5860FF"/>
<path d="M234.595 167.568H227.892V174.27H234.595V167.568Z" fill="#5860FF"/>
<path d="M20.1081 174.27H13.4054V180.973H20.1081V174.27Z" fill="#5860FF"/>
<path d="M33.5135 174.27H26.8108V180.973H33.5135V174.27Z" fill="#5860FF"/>
<path d="M60.3243 174.27H53.6216V180.973H60.3243V174.27Z" fill="#5860FF"/>
<path d="M67.027 174.27H60.3243V180.973H67.027V174.27Z" fill="#5860FF"/>
<path d="M73.7297 174.27H67.027V180.973H73.7297V174.27Z" fill="#5860FF"/>
<path d="M87.1351 174.27H80.4324V180.973H87.1351V174.27Z" fill="#5860FF"/>
<path d="M100.541 174.27H93.8379V180.973H100.541V174.27Z" fill="#5860FF"/>
<path d="M113.946 174.27H107.243V180.973H113.946V174.27Z" fill="#5860FF"/>
<path d="M120.649 174.27H113.946V180.973H120.649V174.27Z" fill="#5860FF"/>
<path d="M134.054 174.27H127.351V180.973H134.054V174.27Z" fill="#5860FF"/>
<path d="M167.568 174.27H160.865V180.973H167.568V174.27Z" fill="#5860FF"/>
<path d="M174.27 174.27H167.568V180.973H174.27V174.27Z" fill="#5860FF"/>
<path d="M180.973 174.27H174.27V180.973H180.973V174.27Z" fill="#5860FF"/>
<path d="M187.676 174.27H180.973V180.973H187.676V174.27Z" fill="#5860FF"/>
<path d="M194.378 174.27H187.676V180.973H194.378V174.27Z" fill="#5860FF"/>
<path d="M201.081 174.27H194.378V180.973H201.081V174.27Z" fill="#5860FF"/>
<path d="M207.784 174.27H201.081V180.973H207.784V174.27Z" fill="#5860FF"/>
<path d="M214.487 174.27H207.784V180.973H214.487V174.27Z" fill="#5860FF"/>
<path d="M227.892 174.27H221.189V180.973H227.892V174.27Z" fill="#5860FF"/>
<path d="M73.7297 180.973H67.027V187.676H73.7297V180.973Z" fill="#5860FF"/>
<path d="M93.8378 180.973H87.1351V187.676H93.8378V180.973Z" fill="#5860FF"/>
<path d="M120.649 180.973H113.946V187.676H120.649V180.973Z" fill="#5860FF"/>
<path d="M127.351 180.973H120.649V187.676H127.351V180.973Z" fill="#5860FF"/>
<path d="M134.054 180.973H127.351V187.676H134.054V180.973Z" fill="#5860FF"/>
<path d="M147.459 180.973H140.757V187.676H147.459V180.973Z" fill="#5860FF"/>
<path d="M154.162 180.973H147.459V187.676H154.162V180.973Z" fill="#5860FF"/>
<path d="M180.973 180.973H174.27V187.676H180.973V180.973Z" fill="#5860FF"/>
<path d="M207.784 180.973H201.081V187.676H207.784V180.973Z" fill="#5860FF"/>
<path d="M214.487 180.973H207.784V187.676H214.487V180.973Z" fill="#5860FF"/>
<path d="M73.7297 187.676H67.027V194.378H73.7297V187.676Z" fill="#5860FF"/>
<path d="M80.4324 187.676H73.7297V194.378H80.4324V187.676Z" fill="#5860FF"/>
<path d="M107.243 187.676H100.541V194.378H107.243V187.676Z" fill="#5860FF"/>
<path d="M113.946 187.676H107.243V194.378H113.946V187.676Z" fill="#5860FF"/>
<path d="M147.459 187.676H140.757V194.378H147.459V187.676Z" fill="#5860FF"/>
<path d="M154.162 187.676H147.459V194.378H154.162V187.676Z" fill="#5860FF"/>
<path d="M167.568 187.676H160.865V194.378H167.568V187.676Z" fill="#5860FF"/>
<path d="M174.27 187.676H167.568V194.378H174.27V187.676Z" fill="#5860FF"/>
<path d="M180.973 187.676H174.27V194.378H180.973V187.676Z" fill="#5860FF"/>
<path d="M194.378 187.676H187.676V194.378H194.378V187.676Z" fill="#5860FF"/>
<path d="M207.784 187.676H201.081V194.378H207.784V187.676Z" fill="#5860FF"/>
<path d="M73.7297 194.378H67.027V201.081H73.7297V194.378Z" fill="#5860FF"/>
<path d="M87.1351 194.378H80.4324V201.081H87.1351V194.378Z" fill="#5860FF"/>
<path d="M93.8378 194.378H87.1351V201.081H93.8378V194.378Z" fill="#5860FF"/>
<path d="M100.541 194.378H93.8379V201.081H100.541V194.378Z" fill="#5860FF"/>
<path d="M107.243 194.378H100.541V201.081H107.243V194.378Z" fill="#5860FF"/>
<path d="M127.351 194.378H120.649V201.081H127.351V194.378Z" fill="#5860FF"/>
<path d="M154.162 194.378H147.459V201.081H154.162V194.378Z" fill="#5860FF"/>
<path d="M160.865 194.378H154.162V201.081H160.865V194.378Z" fill="#5860FF"/>
<path d="M167.568 194.378H160.865V201.081H167.568V194.378Z" fill="#5860FF"/>
<path d="M174.27 194.378H167.568V201.081H174.27V194.378Z" fill="#5860FF"/>
<path d="M180.973 194.378H174.27V201.081H180.973V194.378Z" fill="#5860FF"/>
<path d="M207.784 194.378H201.081V201.081H207.784V194.378Z" fill="#5860FF"/>
<path d="M214.487 194.378H207.784V201.081H214.487V194.378Z" fill="#5860FF"/>
<path d="M221.189 194.378H214.486V201.081H221.189V194.378Z" fill="#5860FF"/>
<path d="M234.595 194.378H227.892V201.081H234.595V194.378Z" fill="#5860FF"/>
<path d="M80.4324 201.081H73.7297V207.784H80.4324V201.081Z" fill="#5860FF"/>
<path d="M87.1351 201.081H80.4324V207.784H87.1351V201.081Z" fill="#5860FF"/>
<path d="M93.8378 201.081H87.1351V207.784H93.8378V201.081Z" fill="#5860FF"/>
<path d="M107.243 201.081H100.541V207.784H107.243V201.081Z" fill="#5860FF"/>
<path d="M113.946 201.081H107.243V207.784H113.946V201.081Z" fill="#5860FF"/>
<path d="M120.649 201.081H113.946V207.784H120.649V201.081Z" fill="#5860FF"/>
<path d="M134.054 201.081H127.351V207.784H134.054V201.081Z" fill="#5860FF"/>
<path d="M160.865 201.081H154.162V207.784H160.865V201.081Z" fill="#5860FF"/>
<path d="M174.27 201.081H167.568V207.784H174.27V201.081Z" fill="#5860FF"/>
<path d="M180.973 201.081H174.27V207.784H180.973V201.081Z" fill="#5860FF"/>
<path d="M187.676 201.081H180.973V207.784H187.676V201.081Z" fill="#5860FF"/>
<path d="M194.378 201.081H187.676V207.784H194.378V201.081Z" fill="#5860FF"/>
<path d="M201.081 201.081H194.378V207.784H201.081V201.081Z" fill="#5860FF"/>
<path d="M207.784 201.081H201.081V207.784H207.784V201.081Z" fill="#5860FF"/>
<path d="M221.189 201.081H214.486V207.784H221.189V201.081Z" fill="#5860FF"/>
<path d="M234.595 201.081H227.892V207.784H234.595V201.081Z" fill="#5860FF"/>
<path d="M73.7297 207.784H67.027V214.487H73.7297V207.784Z" fill="#5860FF"/>
<path d="M100.541 207.784H93.8379V214.487H100.541V207.784Z" fill="#5860FF"/>
<path d="M113.946 207.784H107.243V214.487H113.946V207.784Z" fill="#5860FF"/>
<path d="M140.757 207.784H134.054V214.487H140.757V207.784Z" fill="#5860FF"/>
<path d="M160.865 207.784H154.162V214.487H160.865V207.784Z" fill="#5860FF"/>
<path d="M201.081 207.784H194.378V214.487H201.081V207.784Z" fill="#5860FF"/>
<path d="M214.487 207.784H207.784V214.487H214.487V207.784Z" fill="#5860FF"/>
<path d="M234.595 207.784H227.892V214.487H234.595V207.784Z" fill="#5860FF"/>
<path d="M73.7297 214.486H67.027V221.189H73.7297V214.486Z" fill="#5860FF"/>
<path d="M80.4324 214.486H73.7297V221.189H80.4324V214.486Z" fill="#5860FF"/>
<path d="M100.541 214.486H93.8379V221.189H100.541V214.486Z" fill="#5860FF"/>
<path d="M107.243 214.486H100.541V221.189H107.243V214.486Z" fill="#5860FF"/>
<path d="M113.946 214.486H107.243V221.189H113.946V214.486Z" fill="#5860FF"/>
<path d="M134.054 214.486H127.351V221.189H134.054V214.486Z" fill="#5860FF"/>
<path d="M140.757 214.486H134.054V221.189H140.757V214.486Z" fill="#5860FF"/>
<path d="M154.162 214.486H147.459V221.189H154.162V214.486Z" fill="#5860FF"/>
<path d="M160.865 214.486H154.162V221.189H160.865V214.486Z" fill="#5860FF"/>
<path d="M167.568 214.486H160.865V221.189H167.568V214.486Z" fill="#5860FF"/>
<path d="M180.973 214.486H174.27V221.189H180.973V214.486Z" fill="#5860FF"/>
<path d="M187.676 214.486H180.973V221.189H187.676V214.486Z" fill="#5860FF"/>
<path d="M194.378 214.486H187.676V221.189H194.378V214.486Z" fill="#5860FF"/>
<path d="M201.081 214.486H194.378V221.189H201.081V214.486Z" fill="#5860FF"/>
<path d="M214.487 214.486H207.784V221.189H214.487V214.486Z" fill="#5860FF"/>
<path d="M93.8378 221.189H87.1351V227.892H93.8378V221.189Z" fill="#5860FF"/>
<path d="M100.541 221.189H93.8379V227.892H100.541V221.189Z" fill="#5860FF"/>
<path d="M120.649 221.189H113.946V227.892H120.649V221.189Z" fill="#5860FF"/>
<path d="M127.351 221.189H120.649V227.892H127.351V221.189Z" fill="#5860FF"/>
<path d="M134.054 221.189H127.351V227.892H134.054V221.189Z" fill="#5860FF"/>
<path d="M147.459 221.189H140.757V227.892H147.459V221.189Z" fill="#5860FF"/>
<path d="M154.162 221.189H147.459V227.892H154.162V221.189Z" fill="#5860FF"/>
<path d="M174.27 221.189H167.568V227.892H174.27V221.189Z" fill="#5860FF"/>
<path d="M180.973 221.189H174.27V227.892H180.973V221.189Z" fill="#5860FF"/>
<path d="M187.676 221.189H180.973V227.892H187.676V221.189Z" fill="#5860FF"/>
<path d="M194.378 221.189H187.676V227.892H194.378V221.189Z" fill="#5860FF"/>
<path d="M201.081 221.189H194.378V227.892H201.081V221.189Z" fill="#5860FF"/>
<path d="M207.784 221.189H201.081V227.892H207.784V221.189Z" fill="#5860FF"/>
<path d="M234.595 221.189H227.892V227.892H234.595V221.189Z" fill="#5860FF"/>
<path d="M73.7297 227.892H67.027V234.595H73.7297V227.892Z" fill="#5860FF"/>
<path d="M80.4324 227.892H73.7297V234.595H80.4324V227.892Z" fill="#5860FF"/>
<path d="M87.1351 227.892H80.4324V234.595H87.1351V227.892Z" fill="#5860FF"/>
<path d="M93.8378 227.892H87.1351V234.595H93.8378V227.892Z" fill="#5860FF"/>
<path d="M113.946 227.892H107.243V234.595H113.946V227.892Z" fill="#5860FF"/>
<path d="M120.649 227.892H113.946V234.595H120.649V227.892Z" fill="#5860FF"/>
<path d="M127.351 227.892H120.649V234.595H127.351V227.892Z" fill="#5860FF"/>
<path d="M134.054 227.892H127.351V234.595H134.054V227.892Z" fill="#5860FF"/>
<path d="M147.459 227.892H140.757V234.595H147.459V227.892Z" fill="#5860FF"/>
<path d="M160.865 227.892H154.162V234.595H160.865V227.892Z" fill="#5860FF"/>
<path d="M187.676 227.892H180.973V234.595H187.676V227.892Z" fill="#5860FF"/>
<path d="M207.784 227.892H201.081V234.595H207.784V227.892Z" fill="#5860FF"/>
<path d="M221.189 227.892H214.486V234.595H221.189V227.892Z" fill="#5860FF"/>
<path d="M53.2865 13.4054H20.4432H13.4054V20.4432V53.2865V60.3243H20.4432H53.2865H60.3243V53.2865V20.4432V13.4054H53.2865ZM53.2865 53.2865H20.4432V20.4432H53.2865V53.2865Z" fill="#5860FF"/>
<path d="M227.557 13.4054H194.713H187.676V20.4432V53.2865V60.3243H194.713H227.557H234.595V53.2865V20.4432V13.4054H227.557ZM227.557 53.2865H194.713V20.4432H227.557V53.2865Z" fill="#5860FF"/>
<path d="M53.2865 187.676H20.4432H13.4054V194.713V227.557V234.595H20.4432H53.2865H60.3243V227.557V194.713V187.676H53.2865ZM53.2865 227.557H20.4432V194.713H53.2865V227.557Z" fill="#5860FF"/>
<path d="M46.9189 26.8108H26.8108V46.9189H46.9189V26.8108Z" fill="#5860FF"/>
<path d="M221.189 26.8108H201.081V46.9189H221.189V26.8108Z" fill="#5860FF"/>
<path d="M46.9189 201.081H26.8108V221.189H46.9189V201.081Z" fill="#5860FF"/>
</g>
<defs>
<clipPath id="clip0_887_2639">
<rect width="248" height="248" fill="white"/>
</clipPath>
</defs>
</svg>
