<svg width="781" height="810" viewBox="0 0 781 810" fill="none" xmlns="http://www.w3.org/2000/svg">
<path d="M323.056 224.154L336.778 278.452L384.026 411.952L370.304 357.655L360.761 320.006L313.536 186.497L323.056 224.154Z" fill="url(#paint0_linear_120_385)"/>
<path d="M266.9 336.848L201.743 327.321L155.851 320.58C176.523 266.984 226.031 218.451 293.583 193.127C300.218 190.63 306.886 188.441 313.545 186.52L323.088 224.168L336.81 278.466C333.927 279.304 331.008 280.261 328.117 281.367C298.47 292.458 276.584 313.475 266.9 336.848Z" fill="url(#paint1_linear_120_385)"/>
<path d="M328.085 281.351C327.616 281.522 327.123 281.701 326.662 281.895C326.334 282.015 326.023 282.182 325.671 282.31C323.562 283.158 321.518 284.035 319.499 284.983C319.047 285.201 318.563 285.404 318.111 285.622C315.804 286.728 313.569 287.887 311.384 289.108C311.205 289.2 311.026 289.292 310.847 289.383C310.559 289.541 310.288 289.746 310 289.904C307.917 291.115 305.875 292.363 303.905 293.665C303.626 293.847 303.347 294.028 303.091 294.201C300.959 295.642 298.908 297.159 296.921 298.707C296.713 298.862 296.48 299.027 296.271 299.182C295.924 299.468 295.576 299.754 295.229 300.04C294.496 300.653 293.754 301.242 293.029 301.878C292.381 302.433 291.718 303.019 291.079 303.598C290.377 304.225 289.7 304.844 289.03 305.486C288.423 306.08 287.792 306.681 287.184 307.274C286.539 307.908 285.901 308.565 285.264 309.223C284.688 309.831 284.113 310.439 283.546 311.07C282.917 311.751 282.321 312.447 281.724 313.142C281.425 313.49 281.095 313.823 280.805 314.194C280.637 314.388 280.486 314.629 280.317 314.824C279.156 316.23 278.058 317.666 276.993 319.116C276.856 319.325 276.688 319.52 276.528 319.737C275.35 321.388 274.235 323.07 273.2 324.749C272.912 325.199 272.633 325.672 272.354 326.146C271.576 327.439 270.854 328.738 270.14 330.061C269.87 330.558 269.608 331.078 269.337 331.575C268.461 333.329 267.641 335.089 266.9 336.846L314.148 470.347C314.881 468.565 315.71 466.829 316.585 465.075C316.847 464.555 317.118 464.058 317.38 463.537C318.07 462.223 318.792 460.924 319.57 459.631C319.849 459.158 320.128 458.684 320.431 458.202C321.466 456.523 322.581 454.842 323.768 453.214C323.927 452.996 324.111 452.77 324.285 452.521C325.336 451.102 326.419 449.698 327.542 448.332C328.023 447.759 328.505 447.185 329.01 446.602C329.584 445.915 330.189 445.243 330.794 444.571C331.361 443.939 331.937 443.331 332.512 442.723C333.149 442.066 333.787 441.409 334.432 440.775C335.04 440.182 335.647 439.588 336.278 438.987C336.956 438.368 337.625 437.726 338.327 437.098C338.966 436.52 339.638 435.956 340.277 435.378C340.987 434.774 341.697 434.17 342.439 433.581C343.01 433.108 343.59 432.657 344.17 432.207C346.156 430.66 348.207 429.142 350.339 427.701C350.595 427.529 350.883 427.371 351.138 427.198C353.108 425.896 355.151 424.647 357.234 423.437C357.715 423.155 358.174 422.882 358.664 422.623C360.849 421.402 363.06 420.252 365.344 419.154C365.819 418.928 366.303 418.725 366.779 418.499C368.783 417.583 370.842 416.673 372.936 415.857C373.749 415.535 374.529 415.197 375.35 414.898C378.273 413.807 381.16 412.835 384.043 411.997L336.795 278.497C333.895 279.288 330.976 280.245 328.085 281.351Z" fill="url(#paint2_linear_120_385)"/>
<path d="M201.743 327.322L155.851 320.58L203.1 454.081L248.991 460.822L314.149 470.348L266.901 336.848L201.743 327.322Z" fill="url(#paint3_linear_120_385)"/>
<path d="M414.443 402.754C416.461 402.311 418.48 401.948 420.484 401.616C420.909 401.541 421.374 401.505 421.798 401.43C423.387 401.196 424.952 400.972 426.534 400.794C427.251 400.719 427.976 400.667 428.692 400.592C429.976 400.47 431.269 400.371 432.569 400.296C433.35 400.25 434.115 400.237 434.905 400.215C436.135 400.166 437.351 400.148 438.575 400.154C439.349 400.164 440.147 400.165 440.921 400.176C442.13 400.213 443.339 400.251 444.557 400.312C445.316 400.355 446.043 400.382 446.811 400.448C448.093 400.539 449.336 400.67 450.588 400.825C451.254 400.901 451.911 400.954 452.553 401.039C454.114 401.241 455.669 401.498 457.2 401.764C457.509 401.811 457.842 401.849 458.16 401.919C460.009 402.255 461.837 402.678 463.641 403.11C464.134 403.223 464.588 403.376 465.09 403.513C466.386 403.864 467.683 404.215 468.974 404.622C469.603 404.817 470.217 405.045 470.847 405.241C471.939 405.614 473.039 406.01 474.117 406.414C474.771 406.681 475.418 406.923 476.073 407.19C477.103 407.611 478.11 408.042 479.102 408.504C479.742 408.802 480.382 409.1 481.022 409.398C482.022 409.884 482.999 410.378 483.961 410.905C484.554 411.22 485.147 411.535 485.717 411.859C486.752 412.439 487.756 413.082 488.753 413.702C489.235 414.005 489.708 414.284 490.167 414.595C491.607 415.558 493 416.538 494.364 417.582L431.327 240.739C429.964 239.694 428.562 238.691 427.154 237.742C426.695 237.431 426.19 237.137 425.707 236.835C424.711 236.215 423.715 235.595 422.704 235.007C422.134 234.683 421.518 234.376 420.916 234.037C419.954 233.511 419 233.008 418.008 232.546C417.368 232.248 416.72 231.926 416.08 231.628C415.097 231.189 414.09 230.759 413.083 230.329C412.428 230.062 411.773 229.796 411.095 229.539C410.041 229.125 408.949 228.753 407.865 228.404C407.228 228.184 406.59 227.965 405.937 227.778C404.679 227.386 403.405 227.026 402.117 226.699C401.616 226.562 401.138 226.418 400.613 226.29C398.809 225.858 396.989 225.458 395.155 225.09C394.814 225.029 394.449 224.975 394.108 224.914C392.6 224.64 391.077 224.397 389.548 224.21C388.883 224.134 388.226 224.081 387.56 224.005C386.317 223.873 385.073 223.742 383.792 223.651C383.056 223.6 382.297 223.558 381.537 223.515C380.343 223.446 379.134 223.408 377.901 223.379C377.127 223.369 376.353 223.358 375.555 223.357C374.331 223.351 373.116 223.369 371.885 223.418C371.119 223.432 370.362 223.468 369.582 223.513C368.281 223.589 366.965 223.696 365.649 223.804C364.956 223.87 364.255 223.913 363.562 223.98C361.924 224.151 360.303 224.37 358.668 224.62C358.29 224.678 357.904 224.712 357.503 224.778C355.569 225.084 353.629 225.446 351.705 225.854C351.611 225.889 351.509 225.899 351.439 225.925C350.057 226.216 348.677 226.585 347.289 226.932C346.466 227.152 345.649 227.316 344.826 227.537C342.624 228.126 340.423 228.795 338.248 229.534L401.285 406.378C403.483 405.63 405.692 404.985 407.886 404.372C408.607 404.163 409.33 404.032 410.059 403.846C411.477 403.436 412.959 403.055 414.443 402.754Z" fill="url(#paint4_linear_120_385)"/>
<path d="M519.461 167.406L482.815 197.863L431.263 240.711L494.277 417.563L545.852 374.707L582.474 344.258L625.056 308.875L562.019 132.031L519.461 167.406Z" fill="url(#paint5_linear_120_385)"/>
<path d="M431.263 240.709C408.274 222.889 372.603 217.95 338.185 229.505L321.058 176.288L309.173 139.36L295.347 96.4436C394.65 63.3262 497.537 78.848 562.019 132.03L519.437 167.413L482.792 197.87L431.263 240.709Z" fill="url(#paint6_linear_120_385)"/>
<mask id="mask0_120_385" style="mask-type:luminance" maskUnits="userSpaceOnUse" x="270" y="389" width="40" height="144">
<path d="M307.313 532.026L273.598 435.677C268.292 420.528 269.433 404.332 275.718 389.131L309.433 485.48C303.148 500.681 302.016 516.9 307.313 532.026Z" fill="white"/>
</mask>
<g mask="url(#mask0_120_385)">
<path d="M307.313 532.026L273.598 435.677C273.222 434.645 272.902 433.619 272.596 432.562L306.311 528.911C306.617 529.968 306.961 530.985 307.313 532.026Z" fill="#949494"/>
<path d="M270.251 414.82C270.171 420.8 270.927 426.741 272.619 432.554L306.334 528.903C304.642 523.09 303.886 517.149 303.966 511.169C304.082 502.519 305.999 493.851 309.456 485.472L275.741 389.123C272.261 397.511 270.367 406.17 270.251 414.82Z" fill="url(#paint7_linear_120_385)"/>
</g>
<path d="M131.567 537.251C122.522 525.111 114.993 511.808 109.359 497.362C92.6389 454.597 94.5497 408.499 111.301 365.071L164.668 372.862L210.583 379.595L275.717 389.13C269.128 405.026 268.199 422.022 274.349 437.74C276.107 442.2 278.353 446.324 281.01 450.191L222.893 484.06L180.67 508.685L131.567 537.251Z" fill="url(#paint8_linear_120_385)"/>
<path d="M222.885 484.035L180.654 508.637L131.568 537.25L165.283 633.599L214.377 605.009L256.6 580.384L314.717 546.515L281.002 450.166L222.885 484.035Z" fill="url(#paint9_linear_120_385)"/>
<mask id="mask1_120_385" style="mask-type:luminance" maskUnits="userSpaceOnUse" x="107" y="491" width="59" height="143">
<path d="M140.958 587.972C129.712 555.859 118.489 523.737 107.243 491.623C107.92 493.555 108.62 495.478 109.368 497.385C115.025 511.822 122.522 525.11 131.576 537.274L165.291 633.623C156.246 621.482 148.717 608.179 143.083 593.733C142.327 591.804 141.635 589.904 140.958 587.972Z" fill="white"/>
</mask>
<g mask="url(#mask1_120_385)">
<path d="M140.958 587.972L107.243 491.623C107.92 493.555 108.62 495.478 109.368 497.385C115.025 511.822 122.522 525.11 131.576 537.274L165.291 633.623C156.246 621.482 148.717 608.179 143.083 593.733C142.327 591.804 141.635 589.904 140.958 587.972Z" fill="url(#paint10_linear_120_385)"/>
</g>
<path d="M701.403 430.245C701.366 428.358 701.25 426.473 701.133 424.588C701.075 423.477 701.041 422.356 700.983 421.245C700.834 419.006 700.616 416.796 700.421 414.576C700.339 413.812 700.305 413.029 700.223 412.265C699.915 409.264 699.527 406.266 699.093 403.288L665.378 291.979C665.812 294.957 666.191 297.928 666.491 300.902C666.633 302.193 666.718 303.476 666.836 304.777C666.98 306.497 667.171 308.197 667.282 309.899C667.371 311.274 667.427 312.631 667.483 313.989C667.545 315.62 667.663 317.258 667.703 318.899C667.737 320.357 667.725 321.836 667.752 323.267C667.757 324.8 667.794 326.349 667.775 327.892C667.769 328.293 667.754 328.668 667.748 329.069C667.692 332.684 667.542 336.338 667.305 339.967C667.25 340.972 667.181 342.014 667.102 343.03C666.801 346.962 666.453 350.914 665.986 354.824C665.969 355.108 665.92 355.374 665.871 355.64C665.391 359.341 664.841 363.071 664.194 366.75C664.028 367.741 663.839 368.741 663.658 369.769C662.931 373.696 662.148 377.617 661.254 381.522C661.211 381.725 661.16 381.899 661.118 382.102C660.228 385.852 659.259 389.605 658.227 393.323C657.95 394.299 657.682 395.302 657.382 396.288C656.242 400.174 655.048 404.053 653.742 407.917C653.698 408.028 653.668 408.102 653.647 408.203C652.363 411.966 650.944 415.724 649.493 419.465C649.106 420.426 648.75 421.404 648.339 422.375C646.803 426.183 645.212 429.983 643.501 433.741L677.216 545.05C678.927 541.292 680.518 537.492 682.054 533.684C682.442 532.723 682.829 531.762 683.194 530.811C684.644 527.07 686.063 523.312 687.347 519.549C687.368 519.448 687.421 519.364 687.443 519.263C688.748 515.399 689.951 511.547 691.082 507.634C691.359 506.658 691.659 505.672 691.936 504.697C692.983 500.941 693.984 497.205 694.841 493.438C694.892 493.263 694.943 493.088 694.971 492.923C695.888 489.007 696.663 485.06 697.39 481.132C697.556 480.141 697.754 479.168 697.896 478.188C698.541 474.418 699.115 470.677 699.593 466.885C699.627 466.656 699.669 466.454 699.68 466.235C700.154 462.26 700.525 458.298 700.809 454.312C700.881 453.361 700.944 452.382 700.993 451.441C701.211 447.667 701.382 443.912 701.442 440.142C701.437 439.96 701.456 439.768 701.476 439.575C701.482 439.511 701.465 439.457 701.471 439.393C701.496 437.449 701.465 435.498 701.443 433.574C701.4 432.425 701.429 431.339 701.403 430.245Z" fill="url(#paint11_linear_120_385)"/>
<path d="M643.494 433.713L592.388 418.912L548.439 406.163L489.001 388.945C496.026 372.637 498.528 355.042 495.528 338.197L561.659 320.188L609.611 307.129L665.338 291.934C672.296 339.278 664.071 388.347 643.494 433.713Z" fill="url(#paint12_linear_120_385)"/>
<path d="M592.388 418.914L548.439 406.165L489 388.947L522.724 500.283L582.154 517.474L626.103 530.223L677.185 545.035L643.493 433.715L592.388 418.914Z" fill="url(#paint13_linear_120_385)"/>
<mask id="mask2_120_385" style="mask-type:luminance" maskUnits="userSpaceOnUse" x="185" y="548" width="122" height="136">
<path d="M211.01 622.895L185.189 548.218C207.223 577.783 241.015 598.496 280.592 608.467L306.413 683.144C266.828 673.149 233.044 652.46 211.01 622.895Z" fill="white"/>
</mask>
<g mask="url(#mask2_120_385)">
<path d="M211.01 622.895L185.189 548.218C207.223 577.783 241.015 598.496 280.592 608.467L306.413 683.144C266.828 673.149 233.044 652.46 211.01 622.895Z" fill="url(#paint14_linear_120_385)"/>
</g>
<path d="M280.591 608.468C241.006 598.473 207.222 577.784 185.189 548.219L227.42 523.617L285.576 489.708C295.14 503.492 310.214 513.223 328.052 518.069L300.811 569.967L280.591 608.468Z" fill="url(#paint15_linear_120_385)"/>
<path d="M300.803 569.944L280.592 608.468L306.413 683.145L326.624 644.621L353.865 592.723L328.044 518.046L300.803 569.944Z" fill="url(#paint16_linear_120_385)"/>
<path d="M606.976 579.852C608.704 577.522 610.377 575.186 611.986 572.82C612.214 572.498 612.457 572.143 612.685 571.821C614.422 569.223 616.086 566.571 617.694 563.913C618.072 563.271 618.449 562.628 618.849 561.978C620.441 559.273 621.977 556.561 623.417 553.805L597.596 479.128C596.156 481.884 594.582 484.636 592.99 487.341C592.628 487.951 592.266 488.562 591.903 489.172C590.28 491.862 588.616 494.514 586.841 497.153C586.651 497.434 586.438 497.725 586.225 498.015C584.578 500.421 582.875 502.821 581.108 505.192C580.697 505.74 580.286 506.288 579.875 506.837C577.954 509.369 575.97 511.872 573.907 514.377C573.541 514.829 573.157 515.234 572.791 515.687C570.725 518.113 568.605 520.532 566.444 522.914C566.137 523.238 565.838 523.586 565.531 523.91C563.185 526.438 560.742 528.922 558.25 531.344C557.72 531.856 557.189 532.368 556.643 532.913C554.105 535.352 551.525 537.752 548.842 540.085C548.518 540.362 548.17 540.648 547.846 540.925C545.34 543.087 542.769 545.219 540.134 547.321C539.616 547.723 539.13 548.139 538.612 548.54C535.845 550.717 533.005 552.84 530.125 554.925C529.49 555.369 528.84 555.845 528.205 556.289C525.207 558.417 522.138 560.492 518.995 562.513L544.816 637.19C547.958 635.169 551.02 633.071 554.04 630.934C554.676 630.49 555.288 630.055 555.923 629.611C558.826 627.517 561.689 625.385 564.456 623.208C564.618 623.07 564.789 622.954 564.959 622.839C565.292 622.585 565.592 622.316 565.893 622.047C568.528 619.945 571.122 617.805 573.644 615.611C573.968 615.334 574.315 615.048 574.631 614.747C577.306 612.391 579.893 610.014 582.409 607.583C582.963 607.063 583.485 606.527 584.039 606.006C586.522 603.561 588.974 601.101 591.297 598.581C591.619 598.224 591.917 597.877 592.247 597.544C594.417 595.186 596.523 592.798 598.564 590.381C598.824 590.074 599.093 589.79 599.338 589.515C599.468 589.361 599.566 589.192 599.705 589.062C601.753 586.589 603.713 584.095 605.634 581.563C606.124 581.012 606.55 580.432 606.976 579.852Z" fill="url(#paint17_linear_120_385)"/>
<path d="M493.152 532.264L458.666 491.853L484.487 566.53L518.982 606.965L544.833 637.238L519.012 562.561L493.152 532.264Z" fill="url(#paint18_linear_120_385)"/>
<path d="M519.012 562.559L493.16 532.286L458.674 491.875C474.608 481.501 486.861 467.952 494.17 453.229L553.608 468.133L597.581 479.159C580.875 511.041 553.851 540.199 519.012 562.559Z" fill="url(#paint19_linear_120_385)"/>
<path d="M477.887 663.348C412.976 687.684 346.314 690.873 289.147 676.443L312.637 631.677L332.848 593.152L360.089 541.254C380.687 546.822 404.934 545.853 428.499 537.03C436.964 533.867 444.75 529.861 451.856 525.228L486.35 565.662L512.178 595.944L542.208 631.125C522.617 643.707 501.115 654.621 477.887 663.348Z" fill="url(#paint20_linear_120_385)"/>
<path d="M550.241 682.712C552.812 681.165 555.366 679.57 557.888 677.961L542.217 631.148C539.695 632.757 537.141 634.351 534.547 635.908C533.7 636.428 532.837 636.902 531.967 637.432C530.219 638.467 528.447 639.511 526.667 640.531C526.091 640.847 525.492 641.172 524.902 641.52C522.296 642.973 519.659 644.412 517.005 645.804C516.048 646.312 515.058 646.806 514.101 647.314C511.532 648.648 508.922 649.944 506.296 651.193C505.571 651.537 504.854 651.904 504.106 652.256C500.793 653.809 497.447 655.346 494.053 656.821C493.249 657.167 492.446 657.513 491.633 657.836C488.964 658.968 486.262 660.084 483.52 661.163C481.638 661.902 479.787 662.656 477.887 663.348C473.8 664.89 469.702 666.329 465.601 667.69C464.365 668.088 463.119 668.462 461.883 668.859C459.002 669.775 456.153 670.707 453.27 671.544C451.712 672.006 450.174 672.38 448.63 672.809C446.076 673.527 443.521 674.245 440.965 674.885C439.216 675.335 437.466 675.708 435.7 676.112C433.354 676.674 431.009 677.236 428.67 677.743C425.042 678.506 421.422 679.214 417.807 679.866C416.809 680.044 415.826 680.19 414.851 680.359C412.101 680.829 409.365 681.268 406.635 681.651C405.526 681.816 404.417 681.981 403.3 682.122C400.129 682.534 396.958 682.945 393.808 683.269C393.343 683.305 392.864 683.374 392.384 683.442C388.793 683.794 385.208 684.09 381.629 684.331C380.621 684.406 379.603 684.458 378.586 684.51C375.906 684.663 373.263 684.775 370.589 684.872C369.516 684.918 368.412 684.948 367.33 684.97C364.119 685.051 360.937 685.068 357.761 685.029C357.414 685.023 357.043 685.025 356.703 685.042C353.204 684.989 349.71 684.88 346.247 684.707C345.242 684.648 344.238 684.588 343.21 684.538C340.632 684.388 338.068 684.206 335.496 684C334.451 683.903 333.414 683.829 332.369 683.731C329.147 683.417 325.924 683.104 322.723 682.702C322.524 682.668 322.311 682.666 322.113 682.632C318.745 682.212 315.399 681.704 312.059 681.141C311.067 680.971 310.107 680.816 309.139 680.637C306.671 680.208 304.218 679.746 301.781 679.253C300.804 679.051 299.827 678.849 298.85 678.647C295.593 677.947 292.328 677.223 289.13 676.396L304.801 723.209C308.022 724.028 311.264 724.76 314.544 725.451C315.498 725.662 316.466 725.841 317.42 726.051C319.889 726.559 322.366 727.012 324.842 727.465C325.802 727.62 326.747 727.808 327.706 727.963C331.038 728.503 334.416 729.025 337.816 729.461C337.959 729.488 338.117 729.484 338.283 729.503C341.54 729.911 344.803 730.263 348.072 730.56C349.085 730.642 350.098 730.725 351.111 730.807C353.707 731.004 356.303 731.201 358.928 731.334C359.909 731.402 360.881 731.446 361.854 731.49C365.341 731.655 368.834 731.764 372.381 731.8C372.673 731.8 372.989 731.791 373.313 731.806C376.535 731.828 379.773 731.817 383.031 731.72C384.112 731.698 385.185 731.652 386.243 731.639C388.917 731.541 391.591 731.444 394.264 731.268C395.257 731.224 396.275 731.173 397.283 731.097C400.862 730.857 404.447 730.56 408.038 730.208C408.503 730.172 408.982 730.103 409.462 730.035C412.612 729.711 415.768 729.332 418.93 728.897C420.048 728.756 421.18 728.583 422.289 728.418C425.01 728.011 427.723 727.581 430.427 727.127C431.456 726.965 432.454 726.787 433.452 726.609C436.941 725.976 440.421 725.32 443.923 724.575C444.048 724.556 444.166 724.513 444.291 724.494C446.654 723.979 449.023 723.408 451.392 722.837C453.126 722.419 454.877 722.046 456.61 721.628C458.994 721.025 461.399 720.335 463.79 719.676C465.498 719.187 467.231 718.768 468.931 718.255C471.57 717.48 474.231 716.617 476.878 715.786C478.325 715.311 479.775 714.916 481.238 714.41C485.338 713.049 489.428 711.586 493.524 710.067C494.852 709.557 496.166 709.078 497.462 708.553C498.048 708.339 498.618 708.079 499.219 707.833C501.938 706.763 504.592 705.664 507.261 704.532C508.065 704.186 508.878 703.863 509.681 703.518C513.076 702.042 516.453 700.52 519.758 698.944C520.459 698.609 521.137 698.282 521.815 697.955C524.504 696.657 527.137 695.353 529.776 693.993C530.719 693.517 531.652 693.017 532.595 692.541C535.296 691.132 537.957 689.684 540.6 688.19C541.02 687.957 541.472 687.74 541.884 687.484C542.04 687.4 542.172 687.326 542.295 687.227C544.037 686.248 545.738 685.229 547.448 684.235C548.376 683.79 549.324 683.259 550.241 682.712Z" fill="url(#paint21_linear_120_385)"/>
<path d="M527.319 640.135C530.856 638.103 534.376 636.024 537.861 633.851C538.902 633.206 541.892 630.842 541.892 630.842C541.892 630.842 486.483 666.673 411.677 678.939C350.785 688.926 291.738 676.775 289.138 676.42C413.473 706.551 511.515 649.186 527.319 640.135Z" fill="white"/>
<path d="M458.666 491.852L518.585 561.387C518.585 561.387 565.077 535.207 597.596 479.128C597.596 479.128 574.3 526.321 520.275 563.109L539.719 622.469L518.402 562.782L458.666 491.852Z" fill="white"/>
<path d="M488.999 388.946L642.476 432.853C642.476 432.853 675.614 363.878 665.369 291.952C665.369 291.952 679.744 347.992 644.166 434.843L664.726 503.84L642.294 434.465L488.999 388.946Z" fill="white"/>
<path d="M185.18 548.195C185.18 548.195 217.188 589.536 279.848 606.428L328.035 518.022L280.993 609.571L295.548 651.716L279.372 608.913C279.372 608.913 229.761 599.036 185.18 548.195Z" fill="white"/>
<path d="M104.792 484.019C104.792 484.019 115.771 516.203 131.071 535.815L278.834 450.269C278.834 450.269 259.656 424.897 275.766 389.115C275.766 389.115 261.404 418.682 281.05 450.153L296.857 495.296L279.467 452.005L131.949 538.151L165.331 633.585L130.268 537.329C130.221 537.346 119.587 524.271 104.792 484.019Z" fill="white"/>
<path d="M155.852 320.578L266.26 335.087C266.26 335.087 280.165 292.961 335.099 277.706L313.522 186.526L336.787 278.473L384.035 411.973L335.533 278.823C335.533 278.823 286.049 292.704 267.909 336.478L314.149 470.346L265.681 337.29L155.852 320.578Z" fill="white"/>
<path d="M338.184 229.508C338.184 229.508 392.359 209.03 430.836 239.54L562.034 132.001L432.662 240.176L467.724 342.995L430.035 241.133C430.02 241.165 397.434 211.804 338.184 229.508Z" fill="white"/>
<defs>
<linearGradient id="paint0_linear_120_385" x1="343.642" y1="301.102" x2="353.908" y2="297.363" gradientUnits="userSpaceOnUse">
<stop stop-color="#AE19A0"/>
<stop offset="1" stop-color="#DF13CB"/>
</linearGradient>
<linearGradient id="paint1_linear_120_385" x1="152.542" y1="311.486" x2="334.861" y2="245.074" gradientUnits="userSpaceOnUse">
<stop stop-color="#E412D0"/>
<stop offset="1" stop-color="#B019A1"/>
</linearGradient>
<linearGradient id="paint2_linear_120_385" x1="284.579" y1="389.147" x2="366.264" y2="359.392" gradientUnits="userSpaceOnUse">
<stop stop-color="#EE10D9"/>
<stop offset="1" stop-color="#A41A96"/>
</linearGradient>
<linearGradient id="paint3_linear_120_385" x1="187.983" y1="412.592" x2="282.025" y2="378.336" gradientUnits="userSpaceOnUse">
<stop stop-color="#BA03AA"/>
<stop offset="1" stop-color="#B619A7"/>
</linearGradient>
<linearGradient id="paint4_linear_120_385" x1="376.345" y1="338.069" x2="456.133" y2="309.005" gradientUnits="userSpaceOnUse">
<stop stop-color="#AF00FF"/>
<stop offset="1" stop-color="#FF4DED"/>
</linearGradient>
<linearGradient id="paint5_linear_120_385" x1="452.343" y1="302.412" x2="603.971" y2="247.179" gradientUnits="userSpaceOnUse">
<stop stop-color="#AF00FF"/>
<stop offset="1" stop-color="#FF4DED"/>
</linearGradient>
<linearGradient id="paint6_linear_120_385" x1="321.534" y1="183.795" x2="550.502" y2="100.39" gradientUnits="userSpaceOnUse">
<stop stop-color="#AF00FF"/>
<stop offset="1" stop-color="#FF4DED"/>
</linearGradient>
<linearGradient id="paint7_linear_120_385" x1="282.054" y1="462.288" x2="300.005" y2="455.749" gradientUnits="userSpaceOnUse">
<stop stop-color="#5D05A4"/>
<stop offset="1" stop-color="#4904AA"/>
</linearGradient>
<linearGradient id="paint8_linear_120_385" x1="187.169" y1="374.868" x2="191.844" y2="521.523" gradientUnits="userSpaceOnUse">
<stop stop-color="#4303AB"/>
<stop offset="1" stop-color="#5F05A3"/>
</linearGradient>
<linearGradient id="paint9_linear_120_385" x1="142.575" y1="571.237" x2="303.732" y2="512.533" gradientUnits="userSpaceOnUse">
<stop stop-color="#4303AB"/>
<stop offset="1" stop-color="#5F05A3"/>
</linearGradient>
<linearGradient id="paint10_linear_120_385" x1="132.227" y1="564.078" x2="140.283" y2="561.143" gradientUnits="userSpaceOnUse">
<stop stop-color="#4303AB"/>
<stop offset="1" stop-color="#5F05A3"/>
</linearGradient>
<linearGradient id="paint11_linear_120_385" x1="641.281" y1="431.126" x2="703.086" y2="411.639" gradientUnits="userSpaceOnUse">
<stop stop-color="#8505E8"/>
<stop offset="1" stop-color="#5E079C"/>
</linearGradient>
<linearGradient id="paint12_linear_120_385" x1="497.601" y1="416.225" x2="685.821" y2="356.878" gradientUnits="userSpaceOnUse">
<stop stop-color="#8505E8"/>
<stop offset="1" stop-color="#5E06A0"/>
</linearGradient>
<linearGradient id="paint13_linear_120_385" x1="520.526" y1="493.331" x2="649.464" y2="452.676" gradientUnits="userSpaceOnUse">
<stop stop-color="#5F069D"/>
<stop offset="1" stop-color="#8505E8"/>
</linearGradient>
<linearGradient id="paint14_linear_120_385" x1="212.762" y1="627.706" x2="278.84" y2="603.637" gradientUnits="userSpaceOnUse">
<stop stop-color="#B8E5FA"/>
<stop offset="1" stop-color="#67C7ED"/>
</linearGradient>
<linearGradient id="paint15_linear_120_385" x1="196.935" y1="580.454" x2="332.753" y2="530.98" gradientUnits="userSpaceOnUse">
<stop stop-color="#B8E5FA"/>
<stop offset="1" stop-color="#67C7ED"/>
</linearGradient>
<linearGradient id="paint16_linear_120_385" x1="281.134" y1="613.74" x2="353.321" y2="587.444" gradientUnits="userSpaceOnUse">
<stop stop-color="#B8E5FA"/>
<stop offset="1" stop-color="#67C7ED"/>
</linearGradient>
<linearGradient id="paint17_linear_120_385" x1="522.498" y1="575.93" x2="619.92" y2="540.442" gradientUnits="userSpaceOnUse">
<stop stop-color="#008FD5"/>
<stop offset="1" stop-color="#0072BB"/>
</linearGradient>
<linearGradient id="paint18_linear_120_385" x1="485.873" y1="570.331" x2="517.628" y2="558.764" gradientUnits="userSpaceOnUse">
<stop stop-color="#008FD5"/>
<stop offset="1" stop-color="#0072BB"/>
</linearGradient>
<linearGradient id="paint19_linear_120_385" x1="469.438" y1="521.411" x2="596.172" y2="475.247" gradientUnits="userSpaceOnUse">
<stop stop-color="#008FD5"/>
<stop offset="1" stop-color="#0072BB"/>
</linearGradient>
<linearGradient id="paint20_linear_120_385" x1="421.856" y1="671.496" x2="374.005" y2="534.398" gradientUnits="userSpaceOnUse">
<stop stop-color="#67C7ED"/>
<stop offset="1" stop-color="#00ADEF"/>
</linearGradient>
<linearGradient id="paint21_linear_120_385" x1="305.319" y1="724.644" x2="544.528" y2="637.509" gradientUnits="userSpaceOnUse">
<stop stop-color="#67C7ED"/>
<stop offset="1" stop-color="#00ADEF"/>
</linearGradient>
</defs>
</svg>
